<svg xmlns="http://www.w3.org/2000/svg" version="1.1" xmlns:xlink="http://www.w3.org/1999/xlink" xmlns:svgjs="http://svgjs.dev/svgjs" width="1000" height="623" viewBox="0 0 1000 623"><g transform="matrix(1,0,0,1,-0.6060606060606233,0.2522267206477409)"><svg viewBox="0 0 396 247" data-background-color="#ffffff" preserveAspectRatio="xMidYMid meet" height="623" width="1000" xmlns="http://www.w3.org/2000/svg" xmlns:xlink="http://www.w3.org/1999/xlink"><g id="tight-bounds" transform="matrix(1,0,0,1,0.2400000000000091,-0.09999999999999432)"><svg viewBox="0 0 395.52 247.2" height="247.2" width="395.52"><g><svg></svg></g><g><svg viewBox="0 0 395.52 247.2" height="247.2" width="395.52"><g transform="matrix(1,0,0,1,39.55199999999999,72.13479502131531)"><svg viewBox="0 0 316.416 102.93040995736936" height="102.93040995736936" width="316.416"><g><svg viewBox="0 0 316.416 102.93040995736936" height="102.93040995736936" width="316.416"><g><svg viewBox="0 0 316.416 102.93040995736936" height="102.93040995736936" width="316.416"><g><svg viewBox="0 0 316.416 102.93040995736936" height="102.93040995736936" width="316.416"><g><svg viewBox="0 0 316.416 102.93040995736936" height="102.93040995736936" width="316.416"><g><svg viewBox="0 0 316.416 69.50803026604832" height="69.50803026604832" width="316.416"><g transform="matrix(1,0,0,1,0,0)"><svg width="316.416" viewBox="3 -35.5 204.83999633789062 45" height="69.50803026604832" data-palette-color="#1b1b1b"><path d="M17.1 0.5L17.1 0.5Q12.65 0.5 9.58-1.15 6.5-2.8 4.88-5.8 3.25-8.8 3.05-12.85L3.05-12.85Q3-15.05 3-17.53 3-20 3.05-22.25L3.05-22.25Q3.25-26.3 4.88-29.28 6.5-32.25 9.6-33.88 12.7-35.5 17.1-35.5L17.1-35.5Q20.6-35.5 23.2-34.5 25.8-33.5 27.48-31.98 29.15-30.45 29.98-28.8 30.8-27.15 30.85-25.9L30.85-25.9Q30.9-25.45 30.6-25.18 30.3-24.9 29.8-24.9L29.8-24.9 26.85-24.9Q26.35-24.9 26.13-25.1 25.9-25.3 25.7-25.8L25.7-25.8Q25.25-27.1 24.23-28.35 23.2-29.6 21.48-30.43 19.75-31.25 17.1-31.25L17.1-31.25Q13.1-31.25 10.68-29.1 8.25-26.95 8.05-22L8.05-22Q7.9-17.55 8.05-13.1L8.05-13.1Q8.25-8.1 10.7-5.93 13.15-3.75 17.1-3.75L17.1-3.75Q19.75-3.75 21.83-4.75 23.9-5.75 25.1-7.78 26.3-9.8 26.3-12.95L26.3-12.95 26.3-15.05 18.8-15.05Q18.3-15.05 17.98-15.38 17.65-15.7 17.65-16.25L17.65-16.25 17.65-17.85Q17.65-18.4 17.98-18.73 18.3-19.05 18.8-19.05L18.8-19.05 30.1-19.05Q30.65-19.05 30.95-18.73 31.25-18.4 31.25-17.85L31.25-17.85 31.25-13.05Q31.25-8.95 29.58-5.9 27.9-2.85 24.7-1.18 21.5 0.5 17.1 0.5ZM44.65 9.5L42.3 9.5Q41.9 9.5 41.6 9.2 41.3 8.9 41.3 8.5L41.3 8.5Q41.3 8.3 41.35 8.1 41.4 7.9 41.55 7.6L41.55 7.6 45.4-1.55 35.85-24.1Q35.6-24.7 35.6-24.95L35.6-24.95Q35.6-25.4 35.9-25.7 36.2-26 36.65-26L36.65-26 39.1-26Q39.65-26 39.9-25.75 40.15-25.5 40.3-25.15L40.3-25.15 47.9-6.95 55.7-25.15Q55.85-25.5 56.12-25.75 56.4-26 56.95-26L56.95-26 59.3-26Q59.75-26 60.05-25.7 60.35-25.4 60.35-25L60.35-25Q60.35-24.75 60.1-24.1L60.1-24.1 45.9 8.65Q45.75 9 45.47 9.25 45.2 9.5 44.65 9.5L44.65 9.5ZM68.9 0L66.5 0Q66 0 65.67-0.33 65.35-0.65 65.35-1.15L65.35-1.15 65.35-24.85Q65.35-25.35 65.67-25.68 66-26 66.5-26L66.5-26 68.75-26Q69.25-26 69.57-25.68 69.9-25.35 69.9-24.85L69.9-24.85 69.9-23.1Q71.05-24.65 72.8-25.58 74.55-26.5 77-26.5L77-26.5Q82.65-26.55 85-21.9L85-21.9Q86.15-24 88.35-25.25 90.55-26.5 93.35-26.5L93.35-26.5Q95.95-26.5 98.07-25.3 100.2-24.1 101.42-21.68 102.65-19.25 102.65-15.6L102.65-15.6 102.65-1.15Q102.65-0.65 102.32-0.33 102 0 101.5 0L101.5 0 99.15 0Q98.65 0 98.32-0.33 98-0.65 98-1.15L98-1.15 98-15.15Q98-17.95 97.2-19.55 96.4-21.15 95.05-21.8 93.7-22.45 92.1-22.45L92.1-22.45Q90.8-22.45 89.45-21.8 88.1-21.15 87.22-19.55 86.35-17.95 86.35-15.15L86.35-15.15 86.35-1.15Q86.35-0.65 86.02-0.33 85.7 0 85.2 0L85.2 0 82.85 0Q82.35 0 82.02-0.33 81.7-0.65 81.7-1.15L81.7-1.15 81.7-15.15Q81.7-17.95 80.85-19.55 80-21.15 78.65-21.8 77.3-22.45 75.8-22.45L75.8-22.45Q74.5-22.45 73.15-21.8 71.8-21.15 70.92-19.55 70.05-17.95 70.05-15.2L70.05-15.2 70.05-1.15Q70.05-0.65 69.72-0.33 69.4 0 68.9 0L68.9 0ZM137.94 0L123.84 0Q123.29 0 122.99-0.33 122.69-0.65 122.69-1.15L122.69-1.15 122.69-33.8Q122.69-34.35 122.99-34.68 123.29-35 123.84-35L123.84-35 137.54-35Q141.29-35 143.67-33.77 146.04-32.55 147.17-30.45 148.29-28.35 148.29-25.75L148.29-25.75Q148.29-23.7 147.62-22.23 146.94-20.75 145.94-19.83 144.94-18.9 143.99-18.4L143.99-18.4Q145.94-17.45 147.47-15.3 148.99-13.15 148.99-10.1L148.99-10.1Q148.99-7.35 147.74-5.05 146.49-2.75 144.02-1.38 141.54 0 137.94 0L137.94 0ZM127.59-16.2L127.59-4.05 137.29-4.05Q140.49-4.05 142.24-5.8 143.99-7.55 143.99-10.1L143.99-10.1Q143.99-12.75 142.24-14.48 140.49-16.2 137.29-16.2L137.29-16.2 127.59-16.2ZM127.59-30.95L127.59-20.2 136.79-20.2Q139.99-20.2 141.64-21.68 143.29-23.15 143.29-25.7L143.29-25.7Q143.29-28.25 141.64-29.6 139.99-30.95 136.79-30.95L136.79-30.95 127.59-30.95ZM165.14 0.5L165.14 0.5Q161.94 0.5 159.71-0.93 157.49-2.35 156.34-4.9 155.19-7.45 155.19-10.75L155.19-10.75 155.19-24.85Q155.19-25.35 155.51-25.68 155.84-26 156.34-26L156.34-26 158.84-26Q159.34-26 159.66-25.68 159.99-25.35 159.99-24.85L159.99-24.85 159.99-11Q159.99-3.55 166.49-3.55L166.49-3.55Q169.59-3.55 171.46-5.53 173.34-7.5 173.34-11L173.34-11 173.34-24.85Q173.34-25.35 173.66-25.68 173.99-26 174.49-26L174.49-26 176.99-26Q177.49-26 177.79-25.68 178.09-25.35 178.09-24.85L178.09-24.85 178.09-1.15Q178.09-0.65 177.79-0.33 177.49 0 176.99 0L176.99 0 174.64 0Q174.14 0 173.81-0.33 173.49-0.65 173.49-1.15L173.49-1.15 173.49-3.35Q172.14-1.6 170.21-0.55 168.29 0.5 165.14 0.5ZM195.03 0.5L195.03 0.5Q192.28 0.5 190.28-0.48 188.28-1.45 187.01-3.13 185.74-4.8 185.11-6.95 184.49-9.1 184.39-11.5L184.39-11.5Q184.34-12.3 184.34-13 184.34-13.7 184.39-14.5L184.39-14.5Q184.49-16.85 185.11-19 185.74-21.15 187.01-22.85 188.28-24.55 190.28-25.53 192.28-26.5 195.03-26.5L195.03-26.5Q197.99-26.5 199.94-25.45 201.89-24.4 203.14-22.85L203.14-22.85 203.14-34.35Q203.14-34.85 203.46-35.18 203.79-35.5 204.29-35.5L204.29-35.5 206.69-35.5Q207.19-35.5 207.51-35.18 207.84-34.85 207.84-34.35L207.84-34.35 207.84-1.15Q207.84-0.65 207.51-0.33 207.19 0 206.69 0L206.69 0 204.44 0Q203.89 0 203.59-0.33 203.29-0.65 203.29-1.15L203.29-1.15 203.29-3.25Q202.04-1.65 200.03-0.58 198.03 0.5 195.03 0.5ZM196.09-3.55L196.09-3.55Q198.59-3.55 200.09-4.7 201.59-5.85 202.34-7.63 203.09-9.4 203.14-11.25L203.14-11.25Q203.19-12.05 203.19-13.18 203.19-14.3 203.14-15.1L203.14-15.1Q203.09-16.85 202.31-18.55 201.54-20.25 200.01-21.35 198.49-22.45 196.09-22.45L196.09-22.45Q193.53-22.45 192.03-21.33 190.53-20.2 189.89-18.38 189.24-16.55 189.14-14.45L189.14-14.45Q189.09-13 189.14-11.55L189.14-11.55Q189.24-9.45 189.89-7.63 190.53-5.8 192.03-4.67 193.53-3.55 196.09-3.55Z" opacity="1" transform="matrix(1,0,0,1,0,0)" fill="#1b1b1b" class="undefined-text-0" data-fill-palette-color="primary" id="text-0"></path></svg></g></svg></g><g transform="matrix(1,0,0,1,0,85.91720801913596)"><svg viewBox="0 0 316.416 17.013201938233408" height="17.013201938233408" width="316.416"><g transform="matrix(1,0,0,1,0,0)"><svg width="316.416" viewBox="1.399999976158142 -36.54999923706055 856.3699951171875 46.04999923706055" height="17.013201938233408" data-palette-color="#1b1b1b"><path d="M14.15 0L10.3 0Q9.6 0 9.22-0.35 8.85-0.7 8.65-1.25L8.65-1.25 1.5-24.4Q1.4-24.65 1.4-24.9L1.4-24.9Q1.4-25.35 1.73-25.68 2.05-26 2.5-26L2.5-26 6.95-26Q7.55-26 7.9-25.65 8.25-25.3 8.35-25L8.35-25 12.9-9.6 17.75-24.9Q17.85-25.25 18.23-25.63 18.6-26 19.3-26L19.3-26 22.15-26Q22.85-26 23.23-25.63 23.6-25.25 23.7-24.9L23.7-24.9 28.55-9.6 33.1-25Q33.15-25.3 33.5-25.65 33.85-26 34.5-26L34.5-26 38.95-26Q39.4-26 39.73-25.68 40.05-25.35 40.05-24.9L40.05-24.9Q40.05-24.65 39.95-24.4L39.95-24.4 32.8-1.25Q32.6-0.7 32.25-0.35 31.9 0 31.15 0L31.15 0 27.3 0Q26.6 0 26.2-0.35 25.8-0.7 25.6-1.25L25.6-1.25 20.75-16 15.85-1.25Q15.65-0.7 15.28-0.35 14.9 0 14.15 0L14.15 0ZM56.5 0.5L56.5 0.5Q52.35 0.5 49.55-0.88 46.75-2.25 45.27-4.8 43.8-7.35 43.65-10.75L43.65-10.75Q43.6-11.75 43.6-13.03 43.6-14.3 43.65-15.25L43.65-15.25Q43.8-18.7 45.35-21.23 46.9-23.75 49.7-25.13 52.5-26.5 56.5-26.5L56.5-26.5Q60.45-26.5 63.25-25.13 66.05-23.75 67.6-21.23 69.15-18.7 69.35-15.25L69.35-15.25Q69.4-14.3 69.4-13.03 69.4-11.75 69.35-10.75L69.35-10.75Q69.15-7.35 67.67-4.8 66.2-2.25 63.4-0.88 60.6 0.5 56.5 0.5ZM56.5-5.05L56.5-5.05Q58.95-5.05 60.17-6.55 61.4-8.05 61.55-11L61.55-11Q61.6-11.75 61.6-13 61.6-14.25 61.55-15L61.55-15Q61.4-17.9 60.17-19.43 58.95-20.95 56.5-20.95L56.5-20.95Q54.05-20.95 52.8-19.43 51.55-17.9 51.4-15L51.4-15Q51.35-14.25 51.35-13 51.35-11.75 51.4-11L51.4-11Q51.55-8.05 52.8-6.55 54.05-5.05 56.5-5.05ZM81.15 0L75.84 0Q75.34 0 74.97-0.35 74.59-0.7 74.59-1.25L74.59-1.25 74.59-24.75Q74.59-25.25 74.97-25.63 75.34-26 75.84-26L75.84-26 80.75-26Q81.3-26 81.65-25.63 82-25.25 82-24.75L82-24.75 82-22.75Q83.25-24.3 85.09-25.15 86.95-26 89.3-26L89.3-26 91.45-26Q92-26 92.34-25.65 92.7-25.3 92.7-24.75L92.7-24.75 92.7-20.4Q92.7-19.9 92.34-19.55 92-19.2 91.45-19.2L91.45-19.2 87.09-19.2Q84.84-19.2 83.62-17.95 82.4-16.7 82.4-14.5L82.4-14.5 82.4-1.25Q82.4-0.7 82.02-0.35 81.65 0 81.15 0L81.15 0ZM102.59 0L97.69 0Q97.14 0 96.79-0.35 96.44-0.7 96.44-1.25L96.44-1.25 96.44-34.25Q96.44-34.8 96.79-35.15 97.14-35.5 97.69-35.5L97.69-35.5 102.59-35.5Q103.09-35.5 103.47-35.15 103.84-34.8 103.84-34.25L103.84-34.25 103.84-17.35 111.49-25.15Q111.89-25.5 112.22-25.75 112.54-26 113.24-26L113.24-26 118.94-26Q119.39-26 119.72-25.68 120.04-25.35 120.04-24.9L120.04-24.9Q120.04-24.7 119.94-24.45 119.84-24.2 119.59-24.05L119.59-24.05 109.94-14.35 120.84-1.9Q121.24-1.5 121.24-1.1L121.24-1.1Q121.24-0.65 120.94-0.33 120.64 0 120.14 0L120.14 0 114.34 0Q113.59 0 113.27-0.25 112.94-0.5 112.54-0.85L112.54-0.85 103.84-10.65 103.84-1.25Q103.84-0.7 103.47-0.35 103.09 0 102.59 0L102.59 0ZM136.69 0.5L136.69 0.5Q132.54 0.5 129.74-0.88 126.94-2.25 125.47-4.8 123.99-7.35 123.84-10.75L123.84-10.75Q123.79-11.75 123.79-13.03 123.79-14.3 123.84-15.25L123.84-15.25Q123.99-18.7 125.54-21.23 127.09-23.75 129.89-25.13 132.69-26.5 136.69-26.5L136.69-26.5Q140.64-26.5 143.44-25.13 146.24-23.75 147.79-21.23 149.34-18.7 149.54-15.25L149.54-15.25Q149.59-14.3 149.59-13.03 149.59-11.75 149.54-10.75L149.54-10.75Q149.34-7.35 147.87-4.8 146.39-2.25 143.59-0.88 140.79 0.5 136.69 0.5ZM136.69-5.05L136.69-5.05Q139.14-5.05 140.37-6.55 141.59-8.05 141.74-11L141.74-11Q141.79-11.75 141.79-13 141.79-14.25 141.74-15L141.74-15Q141.59-17.9 140.37-19.43 139.14-20.95 136.69-20.95L136.69-20.95Q134.24-20.95 132.99-19.43 131.74-17.9 131.59-15L131.59-15Q131.54-14.25 131.54-13 131.54-11.75 131.59-11L131.59-11Q131.74-8.05 132.99-6.55 134.24-5.05 136.69-5.05ZM164.39 0.5L164.39 0.5Q161.49 0.5 159.26-0.83 157.04-2.15 155.79-4.67 154.54-7.2 154.54-10.8L154.54-10.8 154.54-24.75Q154.54-25.3 154.91-25.65 155.29-26 155.79-26L155.79-26 161.14-26Q161.64-26 161.99-25.65 162.34-25.3 162.34-24.75L162.34-24.75 162.34-11.1Q162.34-5.5 167.24-5.5L167.24-5.5Q169.59-5.5 170.96-6.98 172.34-8.45 172.34-11.1L172.34-11.1 172.34-24.75Q172.34-25.3 172.69-25.65 173.04-26 173.59-26L173.59-26 178.89-26Q179.39-26 179.74-25.65 180.09-25.3 180.09-24.75L180.09-24.75 180.09-1.25Q180.09-0.7 179.74-0.35 179.39 0 178.89 0L178.89 0 173.94 0Q173.44 0 173.09-0.35 172.74-0.7 172.74-1.25L172.74-1.25 172.74-3.2Q171.44-1.4 169.39-0.45 167.34 0.5 164.39 0.5ZM203.24 0L198.89 0Q195.79 0 193.61-1.03 191.44-2.05 190.29-4.2 189.14-6.35 189.14-9.6L189.14-9.6 189.14-20.1 185.24-20.1Q184.69-20.1 184.34-20.45 183.99-20.8 183.99-21.3L183.99-21.3 183.99-24.75Q183.99-25.3 184.34-25.65 184.69-26 185.24-26L185.24-26 189.14-26 189.14-34.25Q189.14-34.8 189.51-35.15 189.89-35.5 190.39-35.5L190.39-35.5 195.34-35.5Q195.84-35.5 196.19-35.15 196.54-34.8 196.54-34.25L196.54-34.25 196.54-26 202.79-26Q203.34-26 203.69-25.65 204.04-25.3 204.04-24.75L204.04-24.75 204.04-21.3Q204.04-20.8 203.69-20.45 203.34-20.1 202.79-20.1L202.79-20.1 196.54-20.1 196.54-10.2Q196.54-8.3 197.24-7.23 197.94-6.15 199.59-6.15L199.59-6.15 203.24-6.15Q203.79-6.15 204.14-5.8 204.49-5.45 204.49-4.95L204.49-4.95 204.49-1.25Q204.49-0.7 204.14-0.35 203.79 0 203.24 0L203.24 0ZM226.08 0L221.03 0Q220.53 0 220.16-0.35 219.78-0.7 219.78-1.25L219.78-1.25 219.78-24.75Q219.78-25.3 220.16-25.65 220.53-26 221.03-26L221.03-26 226.08-26Q226.58-26 226.93-25.65 227.28-25.3 227.28-24.75L227.28-24.75 227.28-1.25Q227.28-0.7 226.93-0.35 226.58 0 226.08 0L226.08 0ZM226.18-30L220.88-30Q220.38-30 220.03-30.35 219.68-30.7 219.68-31.25L219.68-31.25 219.68-35.3Q219.68-35.8 220.03-36.18 220.38-36.55 220.88-36.55L220.88-36.55 226.18-36.55Q226.68-36.55 227.06-36.18 227.43-35.8 227.43-35.3L227.43-35.3 227.43-31.25Q227.43-30.7 227.06-30.35 226.68-30 226.18-30L226.18-30ZM240.08 0L234.78 0Q234.28 0 233.9-0.35 233.53-0.7 233.53-1.25L233.53-1.25 233.53-24.75Q233.53-25.3 233.9-25.65 234.28-26 234.78-26L234.78-26 239.68-26Q240.23-26 240.58-25.65 240.93-25.3 240.93-24.75L240.93-24.75 240.93-22.8Q242.23-24.4 244.3-25.45 246.38-26.5 249.28-26.5L249.28-26.5Q252.23-26.5 254.48-25.18 256.73-23.85 257.98-21.33 259.23-18.8 259.23-15.2L259.23-15.2 259.23-1.25Q259.23-0.7 258.88-0.35 258.53 0 257.98 0L257.98 0 252.68 0Q252.13 0 251.78-0.35 251.43-0.7 251.43-1.25L251.43-1.25 251.43-14.9Q251.43-17.55 250.15-19.03 248.88-20.5 246.43-20.5L246.43-20.5Q244.08-20.5 242.7-19.03 241.33-17.55 241.33-14.9L241.33-14.9 241.33-1.25Q241.33-0.7 240.98-0.35 240.63 0 240.08 0L240.08 0ZM293.12 0L288.77 0Q285.67 0 283.5-1.03 281.32-2.05 280.17-4.2 279.02-6.35 279.02-9.6L279.02-9.6 279.02-20.1 275.12-20.1Q274.57-20.1 274.22-20.45 273.87-20.8 273.87-21.3L273.87-21.3 273.87-24.75Q273.87-25.3 274.22-25.65 274.57-26 275.12-26L275.12-26 279.02-26 279.02-34.25Q279.02-34.8 279.4-35.15 279.77-35.5 280.27-35.5L280.27-35.5 285.22-35.5Q285.72-35.5 286.07-35.15 286.42-34.8 286.42-34.25L286.42-34.25 286.42-26 292.67-26Q293.22-26 293.57-25.65 293.92-25.3 293.92-24.75L293.92-24.75 293.92-21.3Q293.92-20.8 293.57-20.45 293.22-20.1 292.67-20.1L292.67-20.1 286.42-20.1 286.42-10.2Q286.42-8.3 287.12-7.23 287.82-6.15 289.47-6.15L289.47-6.15 293.12-6.15Q293.67-6.15 294.02-5.8 294.37-5.45 294.37-4.95L294.37-4.95 294.37-1.25Q294.37-0.7 294.02-0.35 293.67 0 293.12 0L293.12 0ZM305.32 0L299.92 0Q299.37 0 299.02-0.35 298.67-0.7 298.67-1.25L298.67-1.25 298.67-34.25Q298.67-34.8 299.02-35.15 299.37-35.5 299.92-35.5L299.92-35.5 305.32-35.5Q305.87-35.5 306.22-35.15 306.57-34.8 306.57-34.25L306.57-34.25 306.57-23Q307.87-24.6 309.85-25.55 311.82-26.5 314.57-26.5L314.57-26.5Q317.52-26.5 319.8-25.18 322.07-23.85 323.35-21.33 324.62-18.8 324.62-15.2L324.62-15.2 324.62-1.25Q324.62-0.7 324.27-0.35 323.92 0 323.37 0L323.37 0 317.92 0Q317.42 0 317.07-0.35 316.72-0.7 316.72-1.25L316.72-1.25 316.72-14.9Q316.72-17.55 315.42-19.03 314.12-20.5 311.72-20.5L311.72-20.5Q309.37-20.5 307.97-19.03 306.57-17.55 306.57-14.9L306.57-14.9 306.57-1.25Q306.57-0.7 306.22-0.35 305.87 0 305.32 0L305.32 0ZM342.22 0.5L342.22 0.5Q336.47 0.5 333.09-2.7 329.72-5.9 329.52-12L329.52-12Q329.52-12.4 329.52-13.08 329.52-13.75 329.52-14.1L329.52-14.1Q329.72-18 331.27-20.78 332.82-23.55 335.62-25.03 338.42-26.5 342.17-26.5L342.17-26.5Q346.42-26.5 349.22-24.78 352.02-23.05 353.44-20.08 354.87-17.1 354.87-13.25L354.87-13.25 354.87-12.1Q354.87-11.6 354.52-11.23 354.17-10.85 353.62-10.85L353.62-10.85 337.32-10.85Q337.32-10.85 337.32-10.73 337.32-10.6 337.32-10.5L337.32-10.5Q337.37-8.9 337.92-7.58 338.47-6.25 339.54-5.45 340.62-4.65 342.17-4.65L342.17-4.65Q343.37-4.65 344.17-5.03 344.97-5.4 345.49-5.88 346.02-6.35 346.27-6.7L346.27-6.7Q346.72-7.25 346.99-7.38 347.27-7.5 347.82-7.5L347.82-7.5 353.12-7.5Q353.57-7.5 353.89-7.2 354.22-6.9 354.17-6.45L354.17-6.45Q354.12-5.6 353.34-4.42 352.57-3.25 351.07-2.13 349.57-1 347.34-0.25 345.12 0.5 342.22 0.5ZM337.32-15.6L337.32-15.45 347.07-15.45 347.07-15.6Q347.07-17.35 346.49-18.68 345.92-20 344.82-20.75 343.72-21.5 342.17-21.5L342.17-21.5Q340.62-21.5 339.54-20.75 338.47-20 337.89-18.68 337.32-17.35 337.32-15.6L337.32-15.6ZM377.21 0L372.16 0Q371.66 0 371.29-0.35 370.91-0.7 370.91-1.25L370.91-1.25 370.91-24.75Q370.91-25.3 371.29-25.65 371.66-26 372.16-26L372.16-26 376.81-26Q377.36-26 377.71-25.65 378.06-25.3 378.06-24.75L378.06-24.75 378.06-23.05Q379.11-24.45 380.89-25.45 382.66-26.45 385.11-26.5L385.11-26.5Q390.86-26.6 393.06-22.1L393.06-22.1Q394.21-24.05 396.36-25.28 398.51-26.5 401.11-26.5L401.11-26.5Q403.71-26.5 405.81-25.33 407.91-24.15 409.16-21.73 410.41-19.3 410.41-15.5L410.41-15.5 410.41-1.25Q410.41-0.7 410.04-0.35 409.66 0 409.16 0L409.16 0 404.21 0Q403.66 0 403.31-0.35 402.96-0.7 402.96-1.25L402.96-1.25 402.96-15.1Q402.96-17.15 402.39-18.3 401.81-19.45 400.84-19.98 399.86-20.5 398.66-20.5L398.66-20.5Q397.61-20.5 396.64-19.98 395.66-19.45 395.04-18.3 394.41-17.15 394.41-15.1L394.41-15.1 394.41-1.25Q394.41-0.7 394.06-0.35 393.71 0 393.21 0L393.21 0 388.26 0Q387.71 0 387.36-0.35 387.01-0.7 387.01-1.25L387.01-1.25 387.01-15.1Q387.01-17.15 386.41-18.3 385.81-19.45 384.84-19.98 383.86-20.5 382.71-20.5L382.71-20.5Q381.66-20.5 380.69-19.98 379.71-19.45 379.09-18.3 378.46-17.15 378.46-15.15L378.46-15.15 378.46-1.25Q378.46-0.7 378.11-0.35 377.76 0 377.21 0L377.21 0ZM428.31 0.5L428.31 0.5Q424.16 0.5 421.36-0.88 418.56-2.25 417.09-4.8 415.61-7.35 415.46-10.75L415.46-10.75Q415.41-11.75 415.41-13.03 415.41-14.3 415.46-15.25L415.46-15.25Q415.61-18.7 417.16-21.23 418.71-23.75 421.51-25.13 424.31-26.5 428.31-26.5L428.31-26.5Q432.26-26.5 435.06-25.13 437.86-23.75 439.41-21.23 440.96-18.7 441.16-15.25L441.16-15.25Q441.21-14.3 441.21-13.03 441.21-11.75 441.16-10.75L441.16-10.75Q440.96-7.35 439.49-4.8 438.01-2.25 435.21-0.88 432.41 0.5 428.31 0.5ZM428.31-5.05L428.31-5.05Q430.76-5.05 431.99-6.55 433.21-8.05 433.36-11L433.36-11Q433.41-11.75 433.41-13 433.41-14.25 433.36-15L433.36-15Q433.21-17.9 431.99-19.43 430.76-20.95 428.31-20.95L428.31-20.95Q425.86-20.95 424.61-19.43 423.36-17.9 423.21-15L423.21-15Q423.16-14.25 423.16-13 423.16-11.75 423.21-11L423.21-11Q423.36-8.05 424.61-6.55 425.86-5.05 428.31-5.05ZM456.71 0.5L456.71 0.5Q453.61 0.5 451.38-0.23 449.16-0.95 447.78-2 446.41-3.05 445.73-4.13 445.06-5.2 445.01-5.95L445.01-5.95Q444.96-6.5 445.36-6.85 445.76-7.2 446.16-7.2L446.16-7.2 451.01-7.2Q451.21-7.2 451.33-7.15 451.46-7.1 451.66-6.9L451.66-6.9Q452.31-6.45 452.98-5.88 453.66-5.3 454.61-4.9 455.56-4.5 456.91-4.5L456.91-4.5Q458.56-4.5 459.68-5.18 460.81-5.85 460.81-7.1L460.81-7.1Q460.81-8 460.31-8.6 459.81-9.2 458.36-9.7 456.91-10.2 454.06-10.8L454.06-10.8Q451.36-11.4 449.46-12.4 447.56-13.4 446.61-14.93 445.66-16.45 445.66-18.6L445.66-18.6Q445.66-20.55 446.88-22.35 448.11-24.15 450.51-25.33 452.91-26.5 456.51-26.5L456.51-26.5Q459.26-26.5 461.33-25.83 463.41-25.15 464.81-24.13 466.21-23.1 466.93-22.03 467.66-20.95 467.71-20.15L467.71-20.15Q467.76-19.6 467.41-19.25 467.06-18.9 466.61-18.9L466.61-18.9 462.16-18.9Q461.91-18.9 461.71-19 461.51-19.1 461.36-19.25L461.36-19.25Q460.76-19.6 460.13-20.15 459.51-20.7 458.66-21.1 457.81-21.5 456.46-21.5L456.46-21.5Q454.86-21.5 453.98-20.78 453.11-20.05 453.11-18.95L453.11-18.95Q453.11-18.25 453.56-17.65 454.01-17.05 455.38-16.55 456.76-16.05 459.66-15.5L459.66-15.5Q463.06-14.9 465.06-13.7 467.06-12.5 467.91-10.93 468.76-9.35 468.76-7.55L468.76-7.55Q468.76-5.2 467.38-3.38 466.01-1.55 463.31-0.53 460.61 0.5 456.71 0.5ZM490.46 0L486.11 0Q483.01 0 480.83-1.03 478.66-2.05 477.51-4.2 476.36-6.35 476.36-9.6L476.36-9.6 476.36-20.1 472.46-20.1Q471.91-20.1 471.56-20.45 471.21-20.8 471.21-21.3L471.21-21.3 471.21-24.75Q471.21-25.3 471.56-25.65 471.91-26 472.46-26L472.46-26 476.36-26 476.36-34.25Q476.36-34.8 476.73-35.15 477.11-35.5 477.61-35.5L477.61-35.5 482.56-35.5Q483.06-35.5 483.41-35.15 483.76-34.8 483.76-34.25L483.76-34.25 483.76-26 490.01-26Q490.56-26 490.91-25.65 491.26-25.3 491.26-24.75L491.26-24.75 491.26-21.3Q491.26-20.8 490.91-20.45 490.56-20.1 490.01-20.1L490.01-20.1 483.76-20.1 483.76-10.2Q483.76-8.3 484.46-7.23 485.16-6.15 486.81-6.15L486.81-6.15 490.46-6.15Q491.01-6.15 491.36-5.8 491.71-5.45 491.71-4.95L491.71-4.95 491.71-1.25Q491.71-0.7 491.36-0.35 491.01 0 490.46 0L490.46 0ZM518.95 0.5L518.95 0.5Q514.8 0.5 512-0.88 509.2-2.25 507.73-4.8 506.25-7.35 506.1-10.75L506.1-10.75Q506.05-11.75 506.05-13.03 506.05-14.3 506.1-15.25L506.1-15.25Q506.25-18.7 507.8-21.23 509.35-23.75 512.15-25.13 514.95-26.5 518.95-26.5L518.95-26.5Q522.9-26.5 525.7-25.13 528.5-23.75 530.05-21.23 531.6-18.7 531.8-15.25L531.8-15.25Q531.85-14.3 531.85-13.03 531.85-11.75 531.8-10.75L531.8-10.75Q531.6-7.35 530.13-4.8 528.65-2.25 525.85-0.88 523.05 0.5 518.95 0.5ZM518.95-5.05L518.95-5.05Q521.4-5.05 522.63-6.55 523.85-8.05 524-11L524-11Q524.05-11.75 524.05-13 524.05-14.25 524-15L524-15Q523.85-17.9 522.63-19.43 521.4-20.95 518.95-20.95L518.95-20.95Q516.5-20.95 515.25-19.43 514-17.9 513.85-15L513.85-15Q513.8-14.25 513.8-13 513.8-11.75 513.85-11L513.85-11Q514-8.05 515.25-6.55 516.5-5.05 518.95-5.05ZM543.5 9.5L538.35 9.5Q537.8 9.5 537.45 9.15 537.1 8.8 537.1 8.25L537.1 8.25 537.1-24.75Q537.1-25.3 537.45-25.65 537.8-26 538.35-26L538.35-26 543.1-26Q543.65-26 544-25.65 544.35-25.3 544.35-24.75L544.35-24.75 544.35-22.85Q545.55-24.45 547.47-25.48 549.4-26.5 552.25-26.5L552.25-26.5Q554.8-26.5 556.72-25.68 558.65-24.85 559.97-23.33 561.3-21.8 562.05-19.65 562.8-17.5 562.9-14.8L562.9-14.8Q562.95-13.85 562.95-13 562.95-12.15 562.9-11.15L562.9-11.15Q562.8-8.6 562.07-6.45 561.35-4.3 560-2.75 558.65-1.2 556.72-0.35 554.8 0.5 552.25 0.5L552.25 0.5Q549.65 0.5 547.8-0.43 545.95-1.35 544.75-2.95L544.75-2.95 544.75 8.25Q544.75 8.8 544.4 9.15 544.05 9.5 543.5 9.5L543.5 9.5ZM549.95-5.5L549.95-5.5Q551.85-5.5 552.95-6.33 554.05-7.15 554.52-8.5 555-9.85 555.1-11.45L555.1-11.45Q555.2-13 555.1-14.55L555.1-14.55Q555-16.15 554.52-17.5 554.05-18.85 552.95-19.68 551.85-20.5 549.95-20.5L549.95-20.5Q548.1-20.5 546.97-19.65 545.85-18.8 545.32-17.5 544.8-16.2 544.75-14.7L544.75-14.7Q544.7-13.8 544.7-12.85 544.7-11.9 544.75-10.95L544.75-10.95Q544.8-9.55 545.35-8.33 545.9-7.1 547.05-6.3 548.2-5.5 549.95-5.5ZM585.04 0L580.69 0Q577.59 0 575.42-1.03 573.25-2.05 572.09-4.2 570.94-6.35 570.94-9.6L570.94-9.6 570.94-20.1 567.04-20.1Q566.5-20.1 566.14-20.45 565.79-20.8 565.79-21.3L565.79-21.3 565.79-24.75Q565.79-25.3 566.14-25.65 566.5-26 567.04-26L567.04-26 570.94-26 570.94-34.25Q570.94-34.8 571.32-35.15 571.69-35.5 572.19-35.5L572.19-35.5 577.14-35.5Q577.64-35.5 578-35.15 578.34-34.8 578.34-34.25L578.34-34.25 578.34-26 584.59-26Q585.14-26 585.5-25.65 585.84-25.3 585.84-24.75L585.84-24.75 585.84-21.3Q585.84-20.8 585.5-20.45 585.14-20.1 584.59-20.1L584.59-20.1 578.34-20.1 578.34-10.2Q578.34-8.3 579.04-7.23 579.75-6.15 581.39-6.15L581.39-6.15 585.04-6.15Q585.59-6.15 585.94-5.8 586.29-5.45 586.29-4.95L586.29-4.95 586.29-1.25Q586.29-0.7 585.94-0.35 585.59 0 585.04 0L585.04 0ZM596.84 0L591.79 0Q591.29 0 590.92-0.35 590.54-0.7 590.54-1.25L590.54-1.25 590.54-24.75Q590.54-25.3 590.92-25.65 591.29-26 591.79-26L591.79-26 596.84-26Q597.34-26 597.69-25.65 598.04-25.3 598.04-24.75L598.04-24.75 598.04-1.25Q598.04-0.7 597.69-0.35 597.34 0 596.84 0L596.84 0ZM596.94-30L591.64-30Q591.14-30 590.79-30.35 590.44-30.7 590.44-31.25L590.44-31.25 590.44-35.3Q590.44-35.8 590.79-36.18 591.14-36.55 591.64-36.55L591.64-36.55 596.94-36.55Q597.44-36.55 597.82-36.18 598.19-35.8 598.19-35.3L598.19-35.3 598.19-31.25Q598.19-30.7 597.82-30.35 597.44-30 596.94-30L596.94-30ZM610.59 0L605.54 0Q605.04 0 604.66-0.35 604.29-0.7 604.29-1.25L604.29-1.25 604.29-24.75Q604.29-25.3 604.66-25.65 605.04-26 605.54-26L605.54-26 610.19-26Q610.74-26 611.09-25.65 611.44-25.3 611.44-24.75L611.44-24.75 611.44-23.05Q612.49-24.45 614.26-25.45 616.04-26.45 618.49-26.5L618.49-26.5Q624.24-26.6 626.44-22.1L626.44-22.1Q627.59-24.05 629.74-25.28 631.89-26.5 634.49-26.5L634.49-26.5Q637.09-26.5 639.19-25.33 641.29-24.15 642.54-21.73 643.79-19.3 643.79-15.5L643.79-15.5 643.79-1.25Q643.79-0.7 643.41-0.35 643.04 0 642.54 0L642.54 0 637.59 0Q637.04 0 636.69-0.35 636.34-0.7 636.34-1.25L636.34-1.25 636.34-15.1Q636.34-17.15 635.76-18.3 635.19-19.45 634.21-19.98 633.24-20.5 632.04-20.5L632.04-20.5Q630.99-20.5 630.01-19.98 629.04-19.45 628.41-18.3 627.79-17.15 627.79-15.1L627.79-15.1 627.79-1.25Q627.79-0.7 627.44-0.35 627.09 0 626.59 0L626.59 0 621.64 0Q621.09 0 620.74-0.35 620.39-0.7 620.39-1.25L620.39-1.25 620.39-15.1Q620.39-17.15 619.79-18.3 619.19-19.45 618.21-19.98 617.24-20.5 616.09-20.5L616.09-20.5Q615.04-20.5 614.06-19.98 613.09-19.45 612.46-18.3 611.84-17.15 611.84-15.15L611.84-15.15 611.84-1.25Q611.84-0.7 611.49-0.35 611.14 0 610.59 0L610.59 0ZM656.04 0L650.99 0Q650.49 0 650.11-0.35 649.74-0.7 649.74-1.25L649.74-1.25 649.74-24.75Q649.74-25.3 650.11-25.65 650.49-26 650.99-26L650.99-26 656.04-26Q656.54-26 656.89-25.65 657.24-25.3 657.24-24.75L657.24-24.75 657.24-1.25Q657.24-0.7 656.89-0.35 656.54 0 656.04 0L656.04 0ZM656.14-30L650.84-30Q650.34-30 649.99-30.35 649.64-30.7 649.64-31.25L649.64-31.25 649.64-35.3Q649.64-35.8 649.99-36.18 650.34-36.55 650.84-36.55L650.84-36.55 656.14-36.55Q656.64-36.55 657.01-36.18 657.39-35.8 657.39-35.3L657.39-35.3 657.39-31.25Q657.39-30.7 657.01-30.35 656.64-30 656.14-30L656.14-30ZM684.53 0L663.53 0Q663.03 0 662.68-0.35 662.33-0.7 662.33-1.25L662.33-1.25 662.33-4.6Q662.33-5.1 662.56-5.53 662.78-5.95 663.08-6.25L663.08-6.25 675.33-20.15 663.98-20.15Q663.43-20.15 663.08-20.5 662.73-20.85 662.73-21.4L662.73-21.4 662.73-24.75Q662.73-25.3 663.08-25.65 663.43-26 663.98-26L663.98-26 683.53-26Q684.03-26 684.38-25.65 684.73-25.3 684.73-24.75L684.73-24.75 684.73-21.1Q684.73-20.7 684.53-20.33 684.33-19.95 684.03-19.6L684.03-19.6 672.08-5.85 684.53-5.85Q685.08-5.85 685.43-5.5 685.78-5.15 685.78-4.6L685.78-4.6 685.78-1.25Q685.78-0.7 685.43-0.35 685.08 0 684.53 0L684.53 0ZM702.23 0.5L702.23 0.5Q696.48 0.5 693.11-2.7 689.73-5.9 689.53-12L689.53-12Q689.53-12.4 689.53-13.08 689.53-13.75 689.53-14.1L689.53-14.1Q689.73-18 691.28-20.78 692.83-23.55 695.63-25.03 698.43-26.5 702.18-26.5L702.18-26.5Q706.43-26.5 709.23-24.78 712.03-23.05 713.46-20.08 714.88-17.1 714.88-13.25L714.88-13.25 714.88-12.1Q714.88-11.6 714.53-11.23 714.18-10.85 713.63-10.85L713.63-10.85 697.33-10.85Q697.33-10.85 697.33-10.73 697.33-10.6 697.33-10.5L697.33-10.5Q697.38-8.9 697.93-7.58 698.48-6.25 699.56-5.45 700.63-4.65 702.18-4.65L702.18-4.65Q703.38-4.65 704.18-5.03 704.98-5.4 705.51-5.88 706.03-6.35 706.28-6.7L706.28-6.7Q706.73-7.25 707.01-7.38 707.28-7.5 707.83-7.5L707.83-7.5 713.13-7.5Q713.58-7.5 713.91-7.2 714.23-6.9 714.18-6.45L714.18-6.45Q714.13-5.6 713.36-4.42 712.58-3.25 711.08-2.13 709.58-1 707.36-0.25 705.13 0.5 702.23 0.5ZM697.33-15.6L697.33-15.45 707.08-15.45 707.08-15.6Q707.08-17.35 706.51-18.68 705.93-20 704.83-20.75 703.73-21.5 702.18-21.5L702.18-21.5Q700.63-21.5 699.56-20.75 698.48-20 697.91-18.68 697.33-17.35 697.33-15.6L697.33-15.6ZM729.58 0.5L729.58 0.5Q727.08 0.5 725.13-0.33 723.18-1.15 721.83-2.73 720.48-4.3 719.78-6.48 719.08-8.65 718.93-11.3L718.93-11.3Q718.88-12.25 718.88-13.03 718.88-13.8 718.93-14.7L718.93-14.7Q719.03-17.3 719.75-19.45 720.48-21.6 721.8-23.18 723.13-24.75 725.1-25.63 727.08-26.5 729.58-26.5L729.58-26.5Q732.18-26.5 734.03-25.63 735.88-24.75 737.08-23.4L737.08-23.4 737.08-34.25Q737.08-34.8 737.43-35.15 737.78-35.5 738.33-35.5L738.33-35.5 743.48-35.5Q744.03-35.5 744.38-35.15 744.73-34.8 744.73-34.25L744.73-34.25 744.73-1.25Q744.73-0.7 744.38-0.35 744.03 0 743.48 0L743.48 0 738.68 0Q738.18 0 737.83-0.35 737.48-0.7 737.48-1.25L737.48-1.25 737.48-2.95Q736.23-1.45 734.33-0.48 732.43 0.5 729.58 0.5ZM731.88-5.5L731.88-5.5Q733.73-5.5 734.85-6.35 735.98-7.2 736.5-8.5 737.03-9.8 737.08-11.3L737.08-11.3Q737.18-12.25 737.18-13.2 737.18-14.15 737.08-15.05L737.08-15.05Q737.03-16.45 736.45-17.68 735.88-18.9 734.78-19.7 733.68-20.5 731.88-20.5L731.88-20.5Q729.98-20.5 728.88-19.68 727.78-18.85 727.3-17.5 726.83-16.15 726.73-14.55L726.73-14.55Q726.63-13 726.73-11.45L726.73-11.45Q726.83-9.85 727.3-8.5 727.78-7.15 728.88-6.33 729.98-5.5 731.88-5.5ZM773.07 0L769.22 0Q768.52 0 768.15-0.35 767.77-0.7 767.57-1.25L767.57-1.25 760.42-24.4Q760.32-24.65 760.32-24.9L760.32-24.9Q760.32-25.35 760.65-25.68 760.97-26 761.42-26L761.42-26 765.87-26Q766.47-26 766.82-25.65 767.17-25.3 767.27-25L767.27-25 771.82-9.6 776.67-24.9Q776.77-25.25 777.15-25.63 777.52-26 778.22-26L778.22-26 781.07-26Q781.77-26 782.15-25.63 782.52-25.25 782.62-24.9L782.62-24.9 787.47-9.6 792.02-25Q792.07-25.3 792.42-25.65 792.77-26 793.42-26L793.42-26 797.87-26Q798.32-26 798.65-25.68 798.97-25.35 798.97-24.9L798.97-24.9Q798.97-24.65 798.87-24.4L798.87-24.4 791.72-1.25Q791.52-0.7 791.17-0.35 790.82 0 790.07 0L790.07 0 786.22 0Q785.52 0 785.12-0.35 784.72-0.7 784.52-1.25L784.52-1.25 779.67-16 774.77-1.25Q774.57-0.7 774.2-0.35 773.82 0 773.07 0L773.07 0ZM811.17 0.5L811.17 0.5Q808.52 0.5 806.42-0.53 804.32-1.55 803.07-3.3 801.82-5.05 801.82-7.2L801.82-7.2Q801.82-10.75 804.7-12.8 807.57-14.85 812.27-15.6L812.27-15.6 818.82-16.55 818.82-17.45Q818.82-19.4 817.92-20.45 817.02-21.5 814.77-21.5L814.77-21.5Q813.12-21.5 812.15-20.85 811.17-20.2 810.62-19.15L810.62-19.15Q810.22-18.5 809.42-18.5L809.42-18.5 804.67-18.5Q804.12-18.5 803.82-18.82 803.52-19.15 803.57-19.6L803.57-19.6Q803.57-20.45 804.22-21.6 804.87-22.75 806.22-23.88 807.57-25 809.7-25.75 811.82-26.5 814.82-26.5L814.82-26.5Q817.97-26.5 820.22-25.75 822.47-25 823.85-23.65 825.22-22.3 825.85-20.53 826.47-18.75 826.47-16.7L826.47-16.7 826.47-1.25Q826.47-0.7 826.12-0.35 825.77 0 825.27 0L825.27 0 820.32 0Q819.82 0 819.47-0.35 819.12-0.7 819.12-1.25L819.12-1.25 819.12-3.1Q818.47-2.15 817.37-1.33 816.27-0.5 814.75 0 813.22 0.5 811.17 0.5ZM813.17-4.7L813.17-4.7Q814.82-4.7 816.12-5.4 817.42-6.1 818.17-7.55 818.92-9 818.92-11.2L818.92-11.2 818.92-12.05 814.27-11.3Q811.62-10.85 810.37-9.95 809.12-9.05 809.12-7.75L809.12-7.75Q809.12-6.8 809.7-6.13 810.27-5.45 811.2-5.08 812.12-4.7 813.17-4.7ZM841.97 9.5L837.27 9.5Q836.87 9.5 836.54 9.2 836.22 8.9 836.22 8.45L836.22 8.45Q836.22 8.35 836.27 8.18 836.32 8 836.42 7.75L836.42 7.75 840.32-1.6 830.72-24.25Q830.57-24.65 830.57-24.9L830.57-24.9Q830.62-25.35 830.92-25.68 831.22-26 831.67-26L831.67-26 836.57-26Q837.17-26 837.47-25.68 837.77-25.35 837.92-25L837.92-25 844.12-9.55 850.47-25Q850.67-25.4 850.97-25.7 851.27-26 851.92-26L851.92-26 856.67-26Q857.12-26 857.44-25.68 857.77-25.35 857.77-24.95L857.77-24.95Q857.77-24.7 857.62-24.25L857.62-24.25 843.47 8.5Q843.27 8.9 842.94 9.2 842.62 9.5 841.97 9.5L841.97 9.5Z" opacity="1" transform="matrix(1,0,0,1,0,0)" fill="#1b1b1b" class="undefined-text-1" data-fill-palette-color="secondary" id="text-1"></path></svg></g></svg></g></svg></g></svg></g></svg></g></svg></g></svg></g><g mask="url(#9795ddab-9207-49a2-a261-d15881fd109b)"><g transform="matrix(5.0452672521049315, 0, 0, 5.0452672521049315, 75.16001924616718, 1)"><svg xmlns="http://www.w3.org/2000/svg" xmlns:xlink="http://www.w3.org/1999/xlink" version="1.1" x="0" y="0" viewBox="25.700000762939453 25.700000762939453 48.59999465942383 48.60000228881836" enable-background="new 0 0 100 100" xml:space="preserve" height="48.60000228881836" width="48.59999465942383" class="icon-none" data-fill-palette-color="accent" id="none"><g fill="#1b1b1b" data-fill-palette-color="accent"><g fill="#1b1b1b" data-fill-palette-color="accent"><path fill="#1b1b1b" d="M69.7 73.9c-0.3 0-0.5-0.1-0.7-0.3l-3.9-3.9c-0.4-0.4-0.4-1 0-1.4s1-0.4 1.4 0l3.2 3.2 1.8-1.8-3.2-3.2c-0.4-0.4-0.4-1 0-1.4s1-0.4 1.4 0l3.9 3.9c0.4 0.4 0.4 1 0 1.4l-3.2 3.2C70.2 73.8 69.9 73.9 69.7 73.9z" data-fill-palette-color="accent"></path></g><g fill="#1b1b1b" data-fill-palette-color="accent"><path fill="#1b1b1b" d="M57.7 61.9c-0.3 0-0.5-0.1-0.7-0.3L38.4 43c-0.4-0.4-0.4-1 0-1.4s1-0.4 1.4 0l18.6 18.6c0.4 0.4 0.4 1 0 1.4C58.2 61.8 58 61.9 57.7 61.9z" data-fill-palette-color="accent"></path></g><g fill="#1b1b1b" data-fill-palette-color="accent"><path fill="#1b1b1b" d="M60.9 58.7c-0.3 0-0.5-0.1-0.7-0.3L41.6 39.8c-0.4-0.4-0.4-1 0-1.4s1-0.4 1.4 0L61.6 57c0.4 0.4 0.4 1 0 1.4C61.4 58.6 61.2 58.7 60.9 58.7z" data-fill-palette-color="accent"></path></g><g fill="#1b1b1b" data-fill-palette-color="accent"><path fill="#1b1b1b" d="M31 35.2c-0.3 0-0.5-0.1-0.7-0.3l-3.5-3.5c-0.2-0.2-0.3-0.4-0.3-0.7s0.1-0.5 0.3-0.7l3.2-3.2c0.4-0.4 1-0.4 1.4 0l3.5 3.5c0.4 0.4 0.4 1 0 1.4s-1 0.4-1.4 0l-2.8-2.8-1.8 1.8 2.8 2.8c0.4 0.4 0.4 1 0 1.4C31.5 35.1 31.2 35.2 31 35.2z" data-fill-palette-color="accent"></path></g><g fill="#1b1b1b" data-fill-palette-color="accent"><g fill="#1b1b1b" data-fill-palette-color="accent"><path fill="#1b1b1b" d="M30.8 43.5L30.8 43.5c-0.3 0-0.5-0.1-0.7-0.3L26 39.1c-0.4-0.4-0.4-1 0-1.4L37.7 26c0.2-0.2 0.4-0.3 0.7-0.3l0 0c0.3 0 0.5 0.1 0.7 0.3l4.1 4.1c0.4 0.4 0.4 1 0 1.4L31.5 43.2C31.3 43.4 31 43.5 30.8 43.5zM28.1 38.4l2.6 2.6 10.3-10.3-2.6-2.6L28.1 38.4z" data-fill-palette-color="accent"></path></g><g fill="#1b1b1b" data-fill-palette-color="accent"><path fill="#1b1b1b" d="M32.3 50.1c-0.3 0-0.5-0.1-0.7-0.3l-4.1-4.1c-0.2-0.2-0.3-0.4-0.3-0.7s0.1-0.5 0.3-0.7l16.7-16.7c0.4-0.4 1-0.4 1.4 0l4.1 4.1c0.4 0.4 0.4 1 0 1.4L33 49.8C32.8 50 32.6 50.1 32.3 50.1zM29.7 45l2.6 2.6 15.3-15.3L45 29.7 29.7 45z" data-fill-palette-color="accent"></path></g></g><g fill="#1b1b1b" data-fill-palette-color="accent"><g fill="#1b1b1b" data-fill-palette-color="accent"><path fill="#1b1b1b" d="M61.6 74.3L61.6 74.3c-0.3 0-0.5-0.1-0.7-0.3l-4.1-4.1c-0.4-0.4-0.4-1 0-1.4l11.7-11.7c0.2-0.2 0.4-0.3 0.7-0.3l0 0c0.3 0 0.5 0.1 0.7 0.3l4.1 4.1c0.4 0.4 0.4 1 0 1.4L62.3 74C62.1 74.2 61.8 74.3 61.6 74.3zM58.9 69.2l2.6 2.6 10.3-10.3-2.6-2.6L58.9 69.2z" data-fill-palette-color="accent"></path></g><g fill="#1b1b1b" data-fill-palette-color="accent"><path fill="#1b1b1b" d="M55 72.7c-0.3 0-0.5-0.1-0.7-0.3l-4.1-4.1c-0.4-0.4-0.4-1 0-1.4L67 50.2c0.2-0.2 0.4-0.3 0.7-0.3l0 0c0.3 0 0.5 0.1 0.7 0.3l4.1 4.1c0.4 0.4 0.4 1 0 1.4L55.7 72.4C55.5 72.6 55.3 72.7 55 72.7zM52.4 67.7l2.6 2.6L70.3 55l-2.6-2.6L52.4 67.7z" data-fill-palette-color="accent"></path></g></g></g></svg></g></g></svg></g><defs><mask id="1fe994a7-a098-4acd-b2cd-19aecebd7535"><rect width="640" height="400" fill="white"></rect><rect width="348.05760000000004" height="103.12571900044269" fill="black" x="145.97119999999998" y="148.43714049977865" id="transform-me" transform="matrix(1,0,0,1,-122.24000000000001,-76.4)"></rect></mask><mask id="772baea5-aa72-4d3f-8fa2-253a979bb39a"><rect width="640" height="400" fill="white"></rect><rect width="348.05760000000004" height="103.12571900044269" fill="black" x="145.97119999999998" y="148.43714049977865" id="transform-me" transform="matrix(1,0,0,1,-122.24000000000001,-76.4)"></rect></mask><mask id="9f8688cf-2515-4b0f-8a71-47d78115d445"><rect width="640" height="400" fill="white"></rect><rect width="348.05760000000004" height="103.12571900044269" fill="black" x="145.97119999999998" y="148.43714049977865" id="transform-me" transform="matrix(1,0,0,1,-122.24000000000001,-76.4)"></rect></mask><mask id="c52328e5-c4a8-4712-9956-b13a0be5fc2d"><rect width="640" height="400" fill="white"></rect><rect width="348.05760000000004" height="103.12571900044269" fill="black" x="145.97119999999998" y="148.43714049977865" id="transform-me" transform="matrix(1,0,0,1,-122.24000000000001,-76.4)"></rect></mask><mask id="97302e2e-64bb-489a-94ac-bc056514c711"><rect width="640" height="400" fill="white"></rect><rect width="348.05760000000004" height="152.63652230491556" fill="black" x="145.97119999999998" y="123.68173884754222" id="transform-me" transform="matrix(1,0,0,1,-122.24000000000001,-76.4)"></rect></mask><mask id="1c1ce78c-8853-43ce-9d3c-75518f68e327"><rect width="640" height="400" fill="white"></rect><rect width="348.05760000000004" height="152.63652230491556" fill="black" x="145.97119999999998" y="123.68173884754222" id="transform-me" transform="matrix(1,0,0,1,-122.24000000000001,-76.4)"></rect></mask><mask id="417d6bf9-5d19-4e96-9320-2a9df9e7fe9c"><rect width="640" height="400" fill="white"></rect><rect width="348.05760000000004" height="152.63652230491556" fill="black" x="145.97119999999998" y="123.68173884754222" id="transform-me" transform="matrix(1,0,0,1,-122.24000000000001,-76.4)"></rect></mask><mask id="842cddd5-5a8c-48ae-9dd2-2c39714d6592"><rect width="640" height="400" fill="white"></rect><rect width="348.05760000000004" height="152.63652230491556" fill="black" x="145.97119999999998" y="123.68173884754222" id="transform-me" transform="matrix(1,0,0,1,-122.24000000000001,-76.4)"></rect></mask><mask id="8121627c-6c96-4413-8a98-f181f696637d"><rect width="640" height="400" fill="white"></rect><rect width="348.05760000000004" height="152.63652230491556" fill="black" x="145.97119999999998" y="123.68173884754222" id="transform-me" transform="matrix(1,0,0,1,-122.24000000000001,-76.4)"></rect></mask><mask id="ba6542aa-9b15-4db4-b351-4e558181d212"><rect width="640" height="400" fill="white"></rect><rect width="348.05760000000004" height="152.63652230491556" fill="black" x="145.97119999999998" y="123.68173884754222" id="transform-me" transform="matrix(1,0,0,1,-122.24000000000001,-76.4)"></rect></mask><mask id="bb94f970-98df-495c-a5bf-998dc46a64ab"><rect width="640" height="400" fill="white"></rect><rect width="348.05760000000004" height="152.63652230491556" fill="black" x="145.97119999999998" y="123.68173884754222" id="transform-me" transform="matrix(1,0,0,1,-122.24000000000001,-76.4)"></rect></mask><mask id="e3669f0e-690a-4a2b-bcfa-a11f392516a9"><rect width="640" height="400" fill="white"></rect><rect width="348.05760000000004" height="152.63652230491556" fill="black" x="145.97119999999998" y="123.68173884754222" id="transform-me" transform="matrix(1,0,0,1,-122.24000000000001,-76.4)"></rect></mask><mask id="08e325e0-0196-41e1-bcaf-363b42ea03d3"><rect width="640" height="400" fill="white"></rect><rect width="348.05760000000004" height="152.63652230491556" fill="black" x="145.97119999999998" y="123.68173884754222" id="transform-me" transform="matrix(1,0,0,1,-122.24000000000001,-76.4)"></rect></mask><mask id="6394d290-d9d9-4089-b380-4f414feab669"><rect width="640" height="400" fill="white"></rect><rect width="348.05760000000004" height="152.63652230491556" fill="black" x="145.97119999999998" y="123.68173884754222" id="transform-me" transform="matrix(1,0,0,1,-122.24000000000001,-76.4)"></rect></mask><mask id="5b624260-50d6-4106-b045-2027af8023f3"><rect width="640" height="400" fill="white"></rect><rect width="348.05760000000004" height="152.63652230491556" fill="black" x="145.97119999999998" y="123.68173884754222" id="transform-me" transform="matrix(1,0,0,1,-122.24000000000001,-76.4)"></rect></mask><mask id="726518ea-bf28-4ba3-b80c-05359c3a85fe"><rect width="640" height="400" fill="white"></rect><rect width="348.05760000000004" height="152.63652230491556" fill="black" x="145.97119999999998" y="123.68173884754222" id="transform-me" transform="matrix(1,0,0,1,-122.24000000000001,-76.4)"></rect></mask><mask id="5074fca0-4bea-4a8d-a71f-8421b5e68237"><rect width="640" height="400" fill="white"></rect><rect width="348.05760000000004" height="152.63652230491556" fill="black" x="145.97119999999998" y="123.68173884754222" id="transform-me" transform="matrix(1,0,0,1,-122.24000000000001,-76.4)"></rect></mask><mask id="6106ea15-1de7-48da-929a-6e24d24c86dc"><rect width="640" height="400" fill="white"></rect><rect width="348.05760000000004" height="152.63652230491556" fill="black" x="145.97119999999998" y="123.68173884754222" id="transform-me" transform="matrix(1,0,0,1,-122.24000000000001,-76.4)"></rect></mask><mask id="0b24dd7f-cbe6-47a0-b4fd-6e305a27210a"><rect width="640" height="400" fill="white"></rect><rect width="348.05760000000004" height="152.63652230491556" fill="black" x="145.97119999999998" y="123.68173884754222" id="transform-me" transform="matrix(1,0,0,1,-122.24000000000001,-76.4)"></rect></mask><mask id="73e5d831-2148-4cf7-86f4-2aaee4fede17"><rect width="640" height="400" fill="white"></rect><rect width="348.05760000000004" height="152.63652230491556" fill="black" x="145.97119999999998" y="123.68173884754222" id="transform-me" transform="matrix(1,0,0,1,-122.24000000000001,-76.4)"></rect></mask><mask id="3746721d-43ef-41d8-99dc-afffbbd0752f"><rect width="640" height="400" fill="white"></rect><rect width="348.05760000000004" height="152.63652230491556" fill="black" x="145.97119999999998" y="123.68173884754222" id="transform-me" transform="matrix(1,0,0,1,-122.24000000000001,-76.4)"></rect></mask><mask id="630a2b28-b4b9-4f6a-8639-cbd2eac604ef"><rect width="640" height="400" fill="white"></rect><rect width="348.05760000000004" height="152.63652230491556" fill="black" x="145.97119999999998" y="123.68173884754222" id="transform-me" transform="matrix(1,0,0,1,-122.24000000000001,-76.4)"></rect></mask><mask id="d1619a41-9797-4ad3-82ef-32445b5b3839"><rect width="640" height="400" fill="white"></rect><rect width="348.05760000000004" height="152.63652230491556" fill="black" x="145.97119999999998" y="123.68173884754222" id="transform-me" transform="matrix(1,0,0,1,-122.24000000000001,-76.4)"></rect></mask><mask id="23512066-4c6c-4286-9484-0eb7731b17c4"><rect width="640" height="400" fill="white"></rect><rect width="348.05760000000004" height="182.936607662455" fill="black" x="145.97119999999998" y="108.5316961687725" id="transform-me" transform="matrix(1,0,0,1,-122.24000000000001,-76.4)"></rect></mask><mask id="3ad5792c-d9e0-47d7-811a-577798ebcb10"><rect width="640" height="400" fill="white"></rect><rect width="348.05760000000004" height="109.54427451972154" fill="black" x="145.97119999999998" y="145.22786274013924" id="transform-me" transform="matrix(1,0,0,1,-122.24000000000001,-76.4)"></rect></mask><mask id="76867bd3-5c10-4b53-b6c2-af076c68415f"><rect width="640" height="400" fill="white"></rect><rect width="348.05760000000004" height="121.10840756485705" fill="black" x="145.97119999999998" y="139.44579621757148" id="transform-me" transform="matrix(1,0,0,1,-122.24000000000001,-76.4)"></rect></mask><mask id="d052bba1-83e6-462b-bf10-fdb63383abb4"><rect width="640" height="400" fill="white"></rect><rect width="348.05760000000004" height="144.8237502185342" fill="black" x="145.97119999999998" y="127.5881248907329" id="transform-me" transform="matrix(1,0,0,1,-122.24000000000001,-76.4)"></rect></mask><mask id="6d0db4d8-f102-40bd-a9fc-9ced0bf3bfaa"><rect width="640" height="400" fill="white"></rect><rect width="348.05760000000004" height="142.00518986498486" fill="black" x="145.97119999999998" y="128.99740506750757" id="transform-me" transform="matrix(1,0,0,1,-122.24000000000001,-76.4)"></rect></mask><mask id="a849e23c-b258-49a5-b009-c05a91908a9f"><rect width="640" height="400" fill="white"></rect><rect width="348.05760000000004" height="142.00518986498486" fill="black" x="145.97119999999998" y="128.99740506750757" id="transform-me" transform="matrix(1,0,0,1,-122.24000000000001,-76.4)"></rect></mask><mask id="2dbdad13-e114-4f0d-a708-1f1bb0b01f7c"><rect width="640" height="400" fill="white"></rect><rect width="348.05760000000004" height="142.00518986498486" fill="black" x="145.97119999999998" y="128.99740506750757" id="transform-me" transform="matrix(1,0,0,1,-122.24000000000001,-76.4)"></rect></mask><mask id="0cdbba9c-19cf-4ea9-9e3d-56aec2c11bf8"><rect width="640" height="400" fill="white"></rect><rect width="348.05760000000004" height="142.00518986498486" fill="black" x="145.97119999999998" y="128.99740506750757" id="transform-me" transform="matrix(1,0,0,1,-122.24000000000001,-76.4)"></rect></mask><mask id="8c6d5f37-f7ed-4e90-9af1-8a48d770ae36"><rect width="640" height="400" fill="white"></rect><rect width="348.05760000000004" height="142.00518986498486" fill="black" x="145.97119999999998" y="128.99740506750757" id="transform-me" transform="matrix(1,0,0,1,-122.24000000000001,-76.4)"></rect></mask><mask id="b444d508-8f55-4e36-bd0c-2c56f3f2a3b3"><rect width="640" height="400" fill="white"></rect><rect width="348.05760000000004" height="142.00518986498486" fill="black" x="145.97119999999998" y="128.99740506750757" id="transform-me" transform="matrix(1,0,0,1,-122.24000000000001,-76.4)"></rect></mask><mask id="50fbe02d-6834-48f9-b346-ba5740cbcf0f"><rect width="640" height="400" fill="white"></rect><rect width="348.05760000000004" height="142.00518986498486" fill="black" x="145.97119999999998" y="128.99740506750757" id="transform-me" transform="matrix(1,0,0,1,-122.24000000000001,-76.4)"></rect></mask><mask id="1cd0067d-1a4c-438a-acc0-2f3a3bff29f4"><rect width="640" height="400" fill="white"></rect><rect width="348.05760000000004" height="142.00518986498486" fill="black" x="145.97119999999998" y="128.99740506750757" id="transform-me" transform="matrix(1,0,0,1,-122.24000000000001,-76.4)"></rect></mask><mask id="3a118529-678c-4a80-8a7d-7ebc9e8ad61f"><rect width="640" height="400" fill="white"></rect><rect width="348.05760000000004" height="142.00518986498486" fill="black" x="145.97119999999998" y="128.99740506750757" id="transform-me" transform="matrix(1,0,0,1,-122.24000000000001,-76.4)"></rect></mask><mask id="f43bb52f-a5c7-4115-a3ed-cb50f0538e8f"><rect width="640" height="400" fill="white"></rect><rect width="348.05760000000004" height="142.00518986498486" fill="black" x="145.97119999999998" y="128.99740506750757" id="transform-me" transform="matrix(1,0,0,1,-122.24000000000001,-76.4)"></rect></mask><mask id="d40bb532-7996-439b-8a7c-4125c144dccf"><rect width="640" height="400" fill="white"></rect><rect width="348.05760000000004" height="142.00518986498486" fill="black" x="145.97119999999998" y="128.99740506750757" id="transform-me" transform="matrix(1,0,0,1,-122.24000000000001,-76.4)"></rect></mask><mask id="4ae69758-086b-4f1d-9042-376deb58cd99"><rect width="640" height="400" fill="white"></rect><rect width="348.05760000000004" height="142.00518986498486" fill="black" x="145.97119999999998" y="128.99740506750757" id="transform-me" transform="matrix(1,0,0,1,-122.24000000000001,-76.4)"></rect></mask><mask id="075c4ce3-519d-4067-a86c-0f40b2038584"><rect width="640" height="400" fill="white"></rect><rect width="348.05760000000004" height="142.00518986498486" fill="black" x="145.97119999999998" y="128.99740506750757" id="transform-me" transform="matrix(1,0,0,1,-122.24000000000001,-76.4)"></rect></mask><mask id="160c4145-fe71-4d90-b9bc-90940d914024"><rect width="640" height="400" fill="white"></rect><rect width="348.05760000000004" height="142.00518986498486" fill="black" x="145.97119999999998" y="128.99740506750757" id="transform-me" transform="matrix(1,0,0,1,-122.24000000000001,-76.4)"></rect></mask><mask id="4f667f57-a559-4108-b1e1-cce483cc9665"><rect width="640" height="400" fill="white"></rect><rect width="348.05760000000004" height="135.7487654635446" fill="black" x="145.97119999999998" y="132.1256172682277" id="transform-me" transform="matrix(1,0,0,1,-122.24000000000001,-76.4)"></rect></mask><mask id="a4a63cf5-2fa9-4956-b584-27e21c7afc8b"><rect width="640" height="400" fill="white"></rect><rect width="348.05760000000004" height="135.7487654635446" fill="black" x="145.97119999999998" y="132.1256172682277" id="transform-me" transform="matrix(1,0,0,1,-122.24000000000001,-76.4)"></rect></mask><mask id="cf815b62-5df0-4020-8f20-35cd1af16d0f"><rect width="640" height="400" fill="white"></rect><rect width="348.05760000000004" height="135.7487654635446" fill="black" x="145.97119999999998" y="132.1256172682277" id="transform-me" transform="matrix(1,0,0,1,-122.24000000000001,-76.4)"></rect></mask><mask id="58719dcc-9024-404e-9ca8-195617ebe5e0"><rect width="640" height="400" fill="white"></rect><rect width="348.05760000000004" height="135.7487654635446" fill="black" x="145.97119999999998" y="132.1256172682277" id="transform-me" transform="matrix(1,0,0,1,-122.24000000000001,-76.4)"></rect></mask><mask id="711b04ac-1318-41aa-b445-d9c937d87a56"><rect width="640" height="400" fill="white"></rect><rect width="348.05760000000004" height="135.7487654635446" fill="black" x="145.97119999999998" y="132.1256172682277" id="transform-me" transform="matrix(1,0,0,1,-122.24000000000001,-76.4)"></rect></mask><mask id="641dc4ca-0ab2-489b-95bd-1b30d4da661e"><rect width="640" height="400" fill="white"></rect><rect width="348.05760000000004" height="135.7487654635446" fill="black" x="145.97119999999998" y="132.1256172682277" id="transform-me" transform="matrix(1,0,0,1,-122.24000000000001,-76.4)"></rect></mask><mask id="e959dbb5-39d4-4996-bb8e-bff43e5e029a"><rect width="640" height="400" fill="white"></rect><rect width="348.05760000000004" height="135.7487654635446" fill="black" x="145.97119999999998" y="132.1256172682277" id="transform-me" transform="matrix(1,0,0,1,-122.24000000000001,-76.4)"></rect></mask><mask id="b7ad07b2-bc0d-446b-ba89-7369a5f8957e"><rect width="640" height="400" fill="white"></rect><rect width="348.05760000000004" height="135.7487654635446" fill="black" x="145.97119999999998" y="132.1256172682277" id="transform-me" transform="matrix(1,0,0,1,-122.24000000000001,-76.4)"></rect></mask><mask id="394985a8-58e4-4591-9a6d-13b4ecc7a12c"><rect width="640" height="400" fill="white"></rect><rect width="348.05760000000004" height="135.7487654635446" fill="black" x="145.97119999999998" y="132.1256172682277" id="transform-me" transform="matrix(1,0,0,1,-122.24000000000001,-76.4)"></rect></mask><mask id="fea52990-9bf2-4dc8-87ec-785d6999ceca"><rect width="640" height="400" fill="white"></rect><rect width="348.05760000000004" height="135.7487654635446" fill="black" x="145.97119999999998" y="132.1256172682277" id="transform-me" transform="matrix(1,0,0,1,-122.24000000000001,-76.4)"></rect></mask><mask id="869361c5-067c-4578-b6af-d3c6add9297d"><rect width="640" height="400" fill="white"></rect><rect width="348.05760000000004" height="135.7487654635446" fill="black" x="145.97119999999998" y="132.1256172682277" id="transform-me" transform="matrix(1,0,0,1,-122.24000000000001,-76.4)"></rect></mask><mask id="1bac91ed-a8bd-4cd5-b60e-a8a669177755"><rect width="640" height="400" fill="white"></rect><rect width="348.05760000000004" height="135.7487654635446" fill="black" x="145.97119999999998" y="132.1256172682277" id="transform-me" transform="matrix(1,0,0,1,-122.24000000000001,-76.4)"></rect></mask><mask id="9795ddab-9207-49a2-a261-d15881fd109b"><rect width="640" height="400" fill="white"></rect><rect width="348.05760000000004" height="135.7487654635446" fill="black" x="145.97119999999998" y="132.1256172682277" id="transform-me" transform="matrix(1,0,0,1,-122.24000000000001,-76.4)"></rect></mask></defs></svg><rect width="395.52" height="247.2" fill="none" stroke="none" visibility="hidden"></rect></g></svg></g></svg>