<svg xmlns="http://www.w3.org/2000/svg" version="1.1" xmlns:xlink="http://www.w3.org/1999/xlink" xmlns:svgjs="http://svgjs.dev/svgjs" width="1000" height="623" viewBox="0 0 1000 623"><g transform="matrix(1,0,0,1,-0.6060606060606233,0.2522267206477409)"><svg viewBox="0 0 396 247" data-background-color="#fafafa" preserveAspectRatio="xMidYMid meet" height="623" width="1000" xmlns="http://www.w3.org/2000/svg" xmlns:xlink="http://www.w3.org/1999/xlink"><g id="tight-bounds" transform="matrix(1,0,0,1,0.2400000000000091,-0.09999999999999432)"><svg viewBox="0 0 395.52 247.2" height="247.2" width="395.52"><g><svg></svg></g><g><svg viewBox="0 0 395.52 247.2" height="247.2" width="395.52"><g transform="matrix(1,0,0,1,39.55199999999999,90.17577464788732)"><svg viewBox="0 0 316.416 66.84845070422536" height="66.84845070422536" width="316.416"><g><svg viewBox="0 0 316.416 66.84845070422536" height="66.84845070422536" width="316.416"><g><svg viewBox="0 0 316.416 66.84845070422536" height="66.84845070422536" width="316.416"><g><svg viewBox="0 0 316.416 66.84845070422536" height="66.84845070422536" width="316.416"><g><svg viewBox="0 0 316.416 66.84845070422536" height="66.84845070422536" width="316.416"><g><svg viewBox="0 0 316.416 66.84845070422536" height="66.84845070422536" width="316.416"><g transform="matrix(1,0,0,1,0,0)"><svg width="316.416" viewBox="2.55 -35.5 212.98999999999998 45" height="66.84845070422536" data-palette-color="#1b1b1b"><path d="M17.75 0.5L17.75 0.5Q13.05 0.5 9.73-1.07 6.4-2.65 4.58-5.68 2.75-8.7 2.6-13L2.6-13Q2.55-15.15 2.55-17.6 2.55-20.05 2.6-22.25L2.6-22.25Q2.75-26.45 4.58-29.4 6.4-32.35 9.78-33.93 13.15-35.5 17.75-35.5L17.75-35.5Q21.45-35.5 24.25-34.55 27.05-33.6 28.98-32.08 30.9-30.55 31.88-28.75 32.85-26.95 32.9-25.25L32.9-25.25Q32.9-24.8 32.6-24.5 32.3-24.2 31.8-24.2L31.8-24.2 25.6-24.2Q25.1-24.2 24.83-24.4 24.55-24.6 24.35-25L24.35-25Q24-25.85 23.23-26.8 22.45-27.75 21.15-28.38 19.85-29 17.75-29L17.75-29Q14.6-29 12.78-27.35 10.95-25.7 10.8-22L10.8-22Q10.65-17.7 10.8-13.25L10.8-13.25Q10.95-9.4 12.85-7.7 14.75-6 17.85-6L17.85-6Q19.9-6 21.53-6.73 23.15-7.45 24.1-8.97 25.05-10.5 25.05-12.9L25.05-12.9 25.05-14.15 19.6-14.15Q19.1-14.15 18.75-14.53 18.4-14.9 18.4-15.4L18.4-15.4 18.4-18.6Q18.4-19.15 18.75-19.5 19.1-19.85 19.6-19.85L19.6-19.85 31.9-19.85Q32.45-19.85 32.8-19.5 33.15-19.15 33.15-18.6L33.15-18.6 33.15-13.15Q33.15-8.85 31.25-5.8 29.35-2.75 25.88-1.13 22.4 0.5 17.75 0.5ZM48.1 9.5L43.4 9.5Q43 9.5 42.67 9.2 42.35 8.9 42.35 8.45L42.35 8.45Q42.35 8.35 42.4 8.18 42.45 8 42.55 7.75L42.55 7.75 46.45-1.6 36.85-24.25Q36.7-24.65 36.7-24.9L36.7-24.9Q36.75-25.35 37.05-25.68 37.35-26 37.8-26L37.8-26 42.7-26Q43.3-26 43.6-25.68 43.9-25.35 44.05-25L44.05-25 50.25-9.55 56.6-25Q56.8-25.4 57.1-25.7 57.4-26 58.05-26L58.05-26 62.8-26Q63.25-26 63.57-25.68 63.9-25.35 63.9-24.95L63.9-24.95Q63.9-24.7 63.75-24.25L63.75-24.25 49.6 8.5Q49.4 8.9 49.07 9.2 48.75 9.5 48.1 9.5L48.1 9.5ZM74.2 0L69.14 0Q68.64 0 68.27-0.35 67.89-0.7 67.89-1.25L67.89-1.25 67.89-24.75Q67.89-25.3 68.27-25.65 68.64-26 69.14-26L69.14-26 73.8-26Q74.34-26 74.7-25.65 75.05-25.3 75.05-24.75L75.05-24.75 75.05-23.05Q76.09-24.45 77.87-25.45 79.65-26.45 82.09-26.5L82.09-26.5Q87.84-26.6 90.05-22.1L90.05-22.1Q91.2-24.05 93.34-25.28 95.5-26.5 98.09-26.5L98.09-26.5Q100.69-26.5 102.8-25.33 104.9-24.15 106.15-21.73 107.4-19.3 107.4-15.5L107.4-15.5 107.4-1.25Q107.4-0.7 107.02-0.35 106.65 0 106.15 0L106.15 0 101.19 0Q100.65 0 100.3-0.35 99.94-0.7 99.94-1.25L99.94-1.25 99.94-15.1Q99.94-17.15 99.37-18.3 98.8-19.45 97.82-19.98 96.84-20.5 95.65-20.5L95.65-20.5Q94.59-20.5 93.62-19.98 92.65-19.45 92.02-18.3 91.4-17.15 91.4-15.1L91.4-15.1 91.4-1.25Q91.4-0.7 91.05-0.35 90.7 0 90.2 0L90.2 0 85.25 0Q84.7 0 84.34-0.35 84-0.7 84-1.25L84-1.25 84-15.1Q84-17.15 83.4-18.3 82.8-19.45 81.82-19.98 80.84-20.5 79.7-20.5L79.7-20.5Q78.65-20.5 77.67-19.98 76.7-19.45 76.07-18.3 75.45-17.15 75.45-15.15L75.45-15.15 75.45-1.25Q75.45-0.7 75.09-0.35 74.75 0 74.2 0L74.2 0ZM141.54 0L126.19 0Q125.69 0 125.34-0.35 124.99-0.7 124.99-1.25L124.99-1.25 124.99-33.75Q124.99-34.3 125.34-34.65 125.69-35 126.19-35L126.19-35 141.09-35Q145.24-35 147.92-33.8 150.59-32.6 151.84-30.4 153.09-28.2 153.09-25.25L153.09-25.25Q153.09-23.4 152.42-22 151.74-20.6 150.77-19.7 149.79-18.8 148.89-18.35L148.89-18.35Q150.84-17.45 152.34-15.38 153.84-13.3 153.84-10.45L153.84-10.45Q153.84-7.3 152.42-4.95 150.99-2.6 148.24-1.3 145.49 0 141.54 0L141.54 0ZM132.94-15.1L132.94-5.9 140.59-5.9Q143.04-5.9 144.29-7.28 145.54-8.65 145.54-10.5L145.54-10.5Q145.54-12.45 144.27-13.78 142.99-15.1 140.59-15.1L140.59-15.1 132.94-15.1ZM132.94-29.1L132.94-20.85 140.14-20.85Q142.49-20.85 143.67-22.03 144.84-23.2 144.84-25.05L144.84-25.05Q144.84-26.9 143.67-28 142.49-29.1 140.14-29.1L140.14-29.1 132.94-29.1ZM168.74 0.5L168.74 0.5Q165.84 0.5 163.61-0.83 161.39-2.15 160.14-4.67 158.89-7.2 158.89-10.8L158.89-10.8 158.89-24.75Q158.89-25.3 159.26-25.65 159.64-26 160.14-26L160.14-26 165.49-26Q165.99-26 166.34-25.65 166.69-25.3 166.69-24.75L166.69-24.75 166.69-11.1Q166.69-5.5 171.59-5.5L171.59-5.5Q173.94-5.5 175.31-6.98 176.69-8.45 176.69-11.1L176.69-11.1 176.69-24.75Q176.69-25.3 177.04-25.65 177.39-26 177.94-26L177.94-26 183.24-26Q183.74-26 184.09-25.65 184.44-25.3 184.44-24.75L184.44-24.75 184.44-1.25Q184.44-0.7 184.09-0.35 183.74 0 183.24 0L183.24 0 178.29 0Q177.79 0 177.44-0.35 177.09-0.7 177.09-1.25L177.09-1.25 177.09-3.2Q175.79-1.4 173.74-0.45 171.69 0.5 168.74 0.5ZM200.39 0.5L200.39 0.5Q197.89 0.5 195.94-0.33 193.99-1.15 192.64-2.73 191.29-4.3 190.59-6.48 189.89-8.65 189.74-11.3L189.74-11.3Q189.69-12.25 189.69-13.03 189.69-13.8 189.74-14.7L189.74-14.7Q189.84-17.3 190.56-19.45 191.29-21.6 192.61-23.18 193.94-24.75 195.91-25.63 197.89-26.5 200.39-26.5L200.39-26.5Q202.99-26.5 204.84-25.63 206.69-24.75 207.89-23.4L207.89-23.4 207.89-34.25Q207.89-34.8 208.24-35.15 208.59-35.5 209.14-35.5L209.14-35.5 214.29-35.5Q214.84-35.5 215.19-35.15 215.54-34.8 215.54-34.25L215.54-34.25 215.54-1.25Q215.54-0.7 215.19-0.35 214.84 0 214.29 0L214.29 0 209.49 0Q208.99 0 208.64-0.35 208.29-0.7 208.29-1.25L208.29-1.25 208.29-2.95Q207.04-1.45 205.14-0.48 203.24 0.5 200.39 0.5ZM202.69-5.5L202.69-5.5Q204.54-5.5 205.66-6.35 206.79-7.2 207.31-8.5 207.84-9.8 207.89-11.3L207.89-11.3Q207.99-12.25 207.99-13.2 207.99-14.15 207.89-15.05L207.89-15.05Q207.84-16.45 207.26-17.68 206.69-18.9 205.59-19.7 204.49-20.5 202.69-20.5L202.69-20.5Q200.79-20.5 199.69-19.68 198.59-18.85 198.11-17.5 197.64-16.15 197.54-14.55L197.54-14.55Q197.44-13 197.54-11.45L197.54-11.45Q197.64-9.85 198.11-8.5 198.59-7.15 199.69-6.33 200.79-5.5 202.69-5.5Z" opacity="1" transform="matrix(1,0,0,1,0,0)" fill="#1b1b1b" class="undefined-text-0" data-fill-palette-color="primary" id="text-0"></path></svg></g></svg></g></svg></g></svg></g><g></g></svg></g></svg></g></svg></g><g mask="url(#6f8fbd4b-8e22-43d8-a5e0-6786745ee9e2)"><g transform="matrix(5.045267489711935, 0, 0, 5.045267489711935, 75.15999999999995, 0.9999999999999858)"><svg xmlns="http://www.w3.org/2000/svg" xmlns:xlink="http://www.w3.org/1999/xlink" version="1.1" x="0" y="0" viewBox="25.700000000000003 25.7 48.60000000000001 48.599999999999994" enable-background="new 0 0 100 100" xml:space="preserve" height="48.599999999999994" width="48.60000000000001" class="icon-none" data-fill-palette-color="accent" id="none"><g fill="#1b1b1b" data-fill-palette-color="accent"><g fill="#1b1b1b" data-fill-palette-color="accent"><path fill="#1b1b1b" d="M69.7 73.9c-0.3 0-0.5-0.1-0.7-0.3l-3.9-3.9c-0.4-0.4-0.4-1 0-1.4s1-0.4 1.4 0l3.2 3.2 1.8-1.8-3.2-3.2c-0.4-0.4-0.4-1 0-1.4s1-0.4 1.4 0l3.9 3.9c0.4 0.4 0.4 1 0 1.4l-3.2 3.2C70.2 73.8 69.9 73.9 69.7 73.9z" data-fill-palette-color="accent"></path></g><g fill="#1b1b1b" data-fill-palette-color="accent"><path fill="#1b1b1b" d="M57.7 61.9c-0.3 0-0.5-0.1-0.7-0.3L38.4 43c-0.4-0.4-0.4-1 0-1.4s1-0.4 1.4 0l18.6 18.6c0.4 0.4 0.4 1 0 1.4C58.2 61.8 58 61.9 57.7 61.9z" data-fill-palette-color="accent"></path></g><g fill="#1b1b1b" data-fill-palette-color="accent"><path fill="#1b1b1b" d="M60.9 58.7c-0.3 0-0.5-0.1-0.7-0.3L41.6 39.8c-0.4-0.4-0.4-1 0-1.4s1-0.4 1.4 0L61.6 57c0.4 0.4 0.4 1 0 1.4C61.4 58.6 61.2 58.7 60.9 58.7z" data-fill-palette-color="accent"></path></g><g fill="#1b1b1b" data-fill-palette-color="accent"><path fill="#1b1b1b" d="M31 35.2c-0.3 0-0.5-0.1-0.7-0.3l-3.5-3.5c-0.2-0.2-0.3-0.4-0.3-0.7s0.1-0.5 0.3-0.7l3.2-3.2c0.4-0.4 1-0.4 1.4 0l3.5 3.5c0.4 0.4 0.4 1 0 1.4s-1 0.4-1.4 0l-2.8-2.8-1.8 1.8 2.8 2.8c0.4 0.4 0.4 1 0 1.4C31.5 35.1 31.2 35.2 31 35.2z" data-fill-palette-color="accent"></path></g><g fill="#1b1b1b" data-fill-palette-color="accent"><g fill="#1b1b1b" data-fill-palette-color="accent"><path fill="#1b1b1b" d="M30.8 43.5L30.8 43.5c-0.3 0-0.5-0.1-0.7-0.3L26 39.1c-0.4-0.4-0.4-1 0-1.4L37.7 26c0.2-0.2 0.4-0.3 0.7-0.3l0 0c0.3 0 0.5 0.1 0.7 0.3l4.1 4.1c0.4 0.4 0.4 1 0 1.4L31.5 43.2C31.3 43.4 31 43.5 30.8 43.5zM28.1 38.4l2.6 2.6 10.3-10.3-2.6-2.6L28.1 38.4z" data-fill-palette-color="accent"></path></g><g fill="#1b1b1b" data-fill-palette-color="accent"><path fill="#1b1b1b" d="M32.3 50.1c-0.3 0-0.5-0.1-0.7-0.3l-4.1-4.1c-0.2-0.2-0.3-0.4-0.3-0.7s0.1-0.5 0.3-0.7l16.7-16.7c0.4-0.4 1-0.4 1.4 0l4.1 4.1c0.4 0.4 0.4 1 0 1.4L33 49.8C32.8 50 32.6 50.1 32.3 50.1zM29.7 45l2.6 2.6 15.3-15.3L45 29.7 29.7 45z" data-fill-palette-color="accent"></path></g></g><g fill="#1b1b1b" data-fill-palette-color="accent"><g fill="#1b1b1b" data-fill-palette-color="accent"><path fill="#1b1b1b" d="M61.6 74.3L61.6 74.3c-0.3 0-0.5-0.1-0.7-0.3l-4.1-4.1c-0.4-0.4-0.4-1 0-1.4l11.7-11.7c0.2-0.2 0.4-0.3 0.7-0.3l0 0c0.3 0 0.5 0.1 0.7 0.3l4.1 4.1c0.4 0.4 0.4 1 0 1.4L62.3 74C62.1 74.2 61.8 74.3 61.6 74.3zM58.9 69.2l2.6 2.6 10.3-10.3-2.6-2.6L58.9 69.2z" data-fill-palette-color="accent"></path></g><g fill="#1b1b1b" data-fill-palette-color="accent"><path fill="#1b1b1b" d="M55 72.7c-0.3 0-0.5-0.1-0.7-0.3l-4.1-4.1c-0.4-0.4-0.4-1 0-1.4L67 50.2c0.2-0.2 0.4-0.3 0.7-0.3l0 0c0.3 0 0.5 0.1 0.7 0.3l4.1 4.1c0.4 0.4 0.4 1 0 1.4L55.7 72.4C55.5 72.6 55.3 72.7 55 72.7zM52.4 67.7l2.6 2.6L70.3 55l-2.6-2.6L52.4 67.7z" data-fill-palette-color="accent"></path></g></g></g></svg></g></g></svg></g><defs><mask id="6f8fbd4b-8e22-43d8-a5e0-6786745ee9e2"><rect width="640" height="400" fill="white"></rect><rect width="348.05760000000004" height="98.41108040112677" fill="black" x="145.97119999999998" y="150.79445979943662" id="transform-me" transform="matrix(1,0,0,1,-122.24000000000001,-76.4)"></rect></mask></defs></svg><rect width="395.52" height="247.2" fill="none" stroke="none" visibility="hidden"></rect></g></svg></g></svg>