<?xml version="1.0" encoding="utf-8"?>
<!-- Generator: Adobe Illustrator 24.0.1, SVG Export Plug-In . SVG Version: 6.00 Build 0)  -->
<svg version="1.1" id="Layer_1" xmlns="http://www.w3.org/2000/svg" xmlns:xlink="http://www.w3.org/1999/xlink" x="0px" y="0px"
	 viewBox="0 0 595.3 841.9" style="enable-background:new 0 0 595.3 841.9;" xml:space="preserve">
<style type="text/css">
	.st0{fill:none;stroke:#757576;stroke-width:14.1732;stroke-miterlimit:10;}
	.st1{fill:#757576;}
</style>
<path class="st0" d="M486,617.6H112.5c-6.6,0-12-5.4-12-12V188.5c0-6.6,5.4-12,12-12H486c6.6,0,12,5.4,12,12v417.1
	C498,612.2,492.6,617.6,486,617.6z"/>
<g>
	<g>
		<path class="st1" d="M145.4,271.3h8.6v62.8h-8.6V271.3z M152.1,306.5l27-35.2h10.6l-38.8,48.4L152.1,306.5z M162.3,300.6l6.8-6.4
			l23.2,39.9h-10.5L162.3,300.6z"/>
		<path class="st1" d="M242.5,300.3v11c0,4.7-0.9,8.8-2.7,12.3c-1.8,3.6-4.3,6.3-7.5,8.2c-3.2,1.9-7,2.9-11.3,2.9
			c-4.3,0-8.1-0.9-11.4-2.7c-3.3-1.8-5.8-4.4-7.6-7.7c-1.8-3.3-2.7-7.2-2.7-11.6v-18.5c0-4.7,0.9-8.8,2.7-12.3s4.3-6.3,7.5-8.2
			s7-2.9,11.3-2.9c3.5,0,6.7,0.8,9.7,2.3c3,1.5,5.4,3.7,7.4,6.5c2,2.8,3.3,6.1,4,9.8h-9.3c-0.5-2.1-1.4-3.9-2.6-5.4
			c-1.2-1.5-2.6-2.7-4.3-3.5c-1.6-0.8-3.3-1.2-5-1.2c-2.5,0-4.7,0.6-6.6,1.9c-1.9,1.2-3.4,3-4.4,5.2c-1,2.2-1.6,4.8-1.6,7.8v18.5
			c0,2.7,0.5,5.1,1.6,7.1c1.1,2,2.6,3.6,4.5,4.7c1.9,1.1,4.2,1.7,6.8,1.7c2.5,0,4.7-0.6,6.6-1.7c1.9-1.2,3.4-2.9,4.4-5.1
			c1-2.2,1.6-4.8,1.6-7.9v-2.7h-12.4v-8.4H242.5z"/>
	</g>
</g>
<g>
	<rect x="270.2" y="300.2" class="st1" width="173.8" height="8.1"/>
	<rect x="270.2" y="250.1" class="st1" width="173.8" height="8.1"/>
	<rect x="270.2" y="350.3" class="st1" width="173.8" height="8.1"/>
</g>
<g>
	
		<rect x="220" y="473.1" transform="matrix(0.9781 -0.2081 0.2081 0.9781 -94.6546 72.3146)" class="st1" width="152.8" height="25.8"/>
	
		<rect x="197.9" y="428.6" transform="matrix(0.9781 -0.2081 0.2081 0.9781 -100.3434 54.8237)" class="st1" width="24.9" height="151.4"/>
	
		<rect x="174" y="458.8" transform="matrix(0.9781 -0.2081 0.2081 0.9781 -101.9302 49.9449)" class="st1" width="24.9" height="101.2"/>
	
		<rect x="150.1" y="501.6" transform="matrix(0.9781 -0.2081 0.2081 0.9781 -103.5126 45.0796)" class="st1" width="24.9" height="25.8"/>
	
		<rect x="370.8" y="391.8" transform="matrix(-0.9781 0.2081 -0.2081 -0.9781 855.4007 845.0879)" class="st1" width="24.9" height="151.4"/>
	
		<rect x="394.8" y="411.9" transform="matrix(-0.9781 0.2081 -0.2081 -0.9781 901.7758 830.0047)" class="st1" width="24.9" height="101.2"/>
	
		<rect x="418.7" y="444.4" transform="matrix(-0.9781 0.2081 -0.2081 -0.9781 948.0228 814.9632)" class="st1" width="24.9" height="25.8"/>
</g>
</svg>
