<?xml version="1.0" encoding="utf-8"?>
<!-- Generator: Adobe Illustrator 24.0.1, SVG Export Plug-In . SVG Version: 6.00 Build 0)  -->
<svg version="1.1" id="Layer_1" xmlns="http://www.w3.org/2000/svg" xmlns:xlink="http://www.w3.org/1999/xlink" x="0px" y="0px"
	 viewBox="0 0 770.3 929.7" style="enable-background:new 0 0 770.3 929.7;" xml:space="preserve">
<style type="text/css">
	.st0{fill:#E6E6E6;}
	.st1{fill:#FFFFFF;}
	.st2{fill:#FFB9B9;}
	.st3{fill:#1B1B1B;}
	.st4{fill:#4CAF50;}
	.st5{opacity:0.8;fill:#FFFFFF;}
</style>
<path class="st0" d="M719.4,848.5c0,0-112.3-51.7-72.9-87.6S719.4,848.5,719.4,848.5z"/>
<path class="st0" d="M717.5,860.5c0,0-51.6-169.6,24.4-161.5C817.9,707.1,717.5,860.5,717.5,860.5z"/>
<path class="st0" d="M679.8,845.5l2.2,28.4l0,0.5c0,4.4,0.2,8.9,0.7,13.3c2.9,28.9,15.6,42.1,30.3,42.1c14.8,0,26.9-13.2,29.8-42.1
	c0.4-4.4,0.7-8.8,0.7-13.3l0-0.4l0-0.1l2.2-28.4H679.8z"/>
<path class="st1" d="M743.5,873.9L743.5,873.9l0,0.5c0,4.4-0.2,8.9-0.7,13.3h-60.1c-0.4-4.4-0.7-8.8-0.7-13.3l0-0.5H743.5z"/>
<path class="st0" d="M84.8,873.2c0,0-41.8-19.2-27.1-32.6S84.8,873.2,84.8,873.2z"/>
<path class="st0" d="M57.2,871.1l1.5,19.7l0,0.3c0,3.1,0.2,6.2,0.5,9.2c2,20.1,10.8,29.3,21.1,29.3s18.7-9.2,20.7-29.3
	c0.3-3.1,0.5-6.1,0.5-9.2l0-0.3l0-0.1l1.5-19.7H57.2z"/>
<path class="st2" d="M523.4,585.2L523.4,585.2c4.6-3.2,5.8-9.5,2.6-14.2c-1.3-1.9-3.1-3.2-5.3-3.9l-23.4-7.5l-12.8,11.1l28.4,15
	C516.2,587.6,520.3,587.4,523.4,585.2z"/>
<polygon class="st3" points="520.9,814.8 518,810.2 512.5,810.2 512.5,808.2 519,808.2 522.6,813.7 "/>
<polygon class="st3" points="350.8,805.8 348.8,805.7 349,798.6 356.1,799.5 355.8,801.5 351,800.9 "/>
<path class="st3" d="M349.3,859.3l-2-0.1l0.4-13.4l2,0.1L349.3,859.3z M349.8,841.5l-2-0.1l0.4-13.4l2,0.1L349.8,841.5z
	 M350.3,823.6l-2-0.1l0.4-13.4l2,0.1L350.3,823.6z"/>
<polygon class="st3" points="347,870.8 347.2,863.7 349.2,863.8 349,868.7 353.9,868.3 354.1,870.3 "/>
<polygon class="st3" points="541.6,855.7 541.4,853.7 545.8,853.4 543.4,849.7 545.1,848.7 549.2,855.1 "/>
<path class="st3" d="M540.9,845.9l-7.5-11.6l1.7-1.1l7.5,11.6L540.9,845.9z M530.9,830.3l-7.5-11.6l1.7-1.1l7.5,11.6L530.9,830.3z"
	/>
<circle class="st4" cx="504" cy="830.7" r="68"/>
<path class="st4" d="M289.5,849.2c-0.6,0-1,0.4-1,1v8c0,0.6,0.4,1,1,1h25c0.6,0,1-0.4,1-1v-8c0-0.6-0.4-1-1-1H289.5z"/>
<path class="st4" d="M347,737.7c-0.6,0-1,0.4-1,1v8c0,0.6,0.4,1,1,1h25c0.6,0,1-0.4,1-1v-8c0-0.6-0.4-1-1-1H347z"/>
<path class="st3" d="M326.4,719.6c11.6,11.8,26.9,20.2,44,27c2.6,1,5.7,0.3,7.5-1.8l0,0c2.3-2.6,2.2-6.6-0.2-9.1l-11.1-11.4
	l-6.7-23.8c-14.4,7.1-23.8,5.5-25.6-9.4l-9.1,12.4C321.6,708.4,322.1,715.3,326.4,719.6z"/>
<path class="st2" d="M449,351.7c-18.2,0-33,14.8-33,33c0,3.9,0.7,7.6,1.9,11.1l-29.4,29.4l21,15l25.6-25.6c4.2,2,8.9,3.1,13.9,3.1
	c18.2,0,33-14.8,33-33S467.2,351.7,449,351.7z"/>
<path class="st3" d="M475.1,375.2c2.6,3.1,6.7,4.8,10.7,4.3c4-0.6,7.5-4,7.8-8c0.2-3.5-1.8-6.6-4-9.4c-4.7-6-10.3-11.3-16.6-15.7
	c-3-2.1-6.3-4-10-4.2c-1.8-0.1-3.6,0.2-5.4,0.1c-3.3-0.1-6.4-1.6-9.7-2.3c-6.7-1.5-13.8,0-19.3,4.1c-1.8,1.4-3.5,3-4.9,4.8
	c-4,4.9-6.7,10.7-7.8,16.9c-1.7,9.8,0.4,20.6-4.3,29.4c5.5-0.5,10-4.7,15.2-6.5c3.9-1.3,8.1-1.3,12,0.1c1,0.5,2.1,0.7,3.2,0.6
	c0.9-0.3,1.7-0.9,2.3-1.7l10.1-11c2-2.2,4.4-4.6,7.4-4.9c1.8-0.1,3.6,0.3,5.2,1c4,1.5,7.9,3.4,11.7,5.5"/>
<g>
	<rect x="451.2" y="808.2" class="st3" width="11.5" height="2"/>
	<rect x="435.9" y="808.2" class="st3" width="11.5" height="2"/>
	
		<rect x="410" y="802.1" transform="matrix(0.1317 -0.9913 0.9913 0.1317 -443.8993 1108.952)" class="st3" width="2" height="11.5"/>
	<polygon class="st3" points="420.7,808.1 420.4,810.1 421.4,810.2 432,810.2 432,808.2 421.6,808.2 	"/>
	
		<rect x="449.6" y="860.4" transform="matrix(0.997 -7.714454e-02 7.714454e-02 0.997 -65.0949 37.699)" class="st3" width="11.5" height="2"/>
	
		<rect x="403.7" y="864" transform="matrix(0.997 -7.714454e-02 7.714454e-02 0.997 -65.5071 34.1666)" class="st3" width="11.5" height="2"/>
	
		<rect x="388.4" y="865.2" transform="matrix(0.997 -7.762986e-02 7.762986e-02 0.997 -66.05 33.2131)" class="st3" width="11.5" height="2"/>
	
		<rect x="419" y="862.8" transform="matrix(0.997 -7.714454e-02 7.714454e-02 0.997 -65.3697 35.3441)" class="st3" width="11.5" height="2"/>
	
		<rect x="465" y="859.2" transform="matrix(0.997 -7.714454e-02 7.714454e-02 0.997 -64.9576 38.8765)" class="st3" width="11.5" height="2"/>
	
		<rect x="434.3" y="861.6" transform="matrix(0.997 -7.714454e-02 7.714454e-02 0.997 -65.2323 36.5215)" class="st3" width="11.5" height="2"/>
	
		<rect x="480.3" y="858" transform="matrix(0.997 -7.714454e-02 7.714454e-02 0.997 -64.8202 40.0539)" class="st3" width="11.5" height="2"/>
	<path class="st3" d="M600.3,510.5c-0.2-1.1-1.2-1.8-2.3-1.6l-23.4,4.2c-0.7,0.1-1.2,0.6-1.5,1.2l-27.4,64.6
		c-0.8,0.1-1.5,0.4-2.1,0.9l-30.7,23.5l-34.4,4.5c-0.6,0.1-1.2,0.2-1.8,0.4l-6-4.8l22.8-3.2c5.6-0.5,10.9-2.8,15.2-6.5l25.5-22.1
		c1.8-1.6,2-4.4,0.5-6.2c-0.8-1-2.1-1.5-3.3-1.5c-1,0-1.9,0.3-2.7,0.9l-30.7,23.5l-34.4,4.5c-5.9,0.8-10,7.2-10.5,13.1l0,0
		l15.3,15.3l12.2,59.3L459,702.1l-6.5-4.8l-3.6,1.5l-3.1-6.5l-2.7,1.3l3,6.3l-3.6,1.4v17.5l-75.1,76.2c-0.4-0.2-0.9-0.4-1.4-0.6
		v-47.6h-11v44.8c-1.8-0.2-3.6-0.3-5.5-0.3c-5.9,0-11.6,1.1-16.7,3.2l-36.9-116.1c2.4-0.7,4.9-1.6,7.2-2.6l4.3,1.3
		c0.8,0.2,1.6,0.3,2.4,0.3c4.6,0,8.3-3.7,8.3-8.3c0-2.1-1.7-3.8-3.8-3.8h-37.7c-4.3,0-7.8,3.5-7.8,7.8c0,4.2,3.3,7.6,7.4,7.8
		c0.3,0,0.6,0,0.9,0l31.4,137c-0.5,1-0.9,2-1.3,3.1c-8.9,7.2-16.6,6.8-22.4-4.6l-4.3,14.7c-1.7,5.9,1.1,12.1,6.7,14.7
		c6.4,3,13.3,5.3,20.4,6.8c0.3,0.7,0.5,1.3,0.8,2L259,904.7h-28v25h354v-25h-27.8L530,856.6l7.7-0.6l-0.2-2l-8.7,0.7l-25.1-44.4h4.8
		v-2h-5.9l-35-62.1l30.5-28.7c7.9-3.8,12.3-12.7,10.1-21.5l-16-78.5l16.1-2.2c3.7-0.4,7.2-1.5,10.4-3.2c8.4,7.8,19.5,12.3,31.1,12.3
		v0c11.1,0,21.8-4.1,30.1-11.4c18.4-16.3,20.5-44.1,5.1-62.9l15-38.4C600.3,511.2,600.4,510.8,600.3,510.5z M472.2,808.2h-5.7v2h7
		l29.6,46.4l-7.5,0.6l0.2,2l8.6-0.7l29.4,46.1h-234l29.9-28.2c6,3,12.8,4.7,20,4.7c12.4,0,23.6-5,31.7-13.1l3.5-0.3l-0.2-2l-1.3,0.1
		c7-7.9,11.3-18.3,11.3-29.8c0-6.3-1.3-12.2-3.6-17.6l54.9-51.8L472.2,808.2z M573.9,611.4c-15.7,11.5-36.9,10-50.8-2.4
		c0.2-0.1,0.4-0.3,0.5-0.4l14.9-12.9c-0.1,0.2-0.1,0.4-0.1,0.6c-0.1,1.1,0.8,2.1,1.9,2.1l23.7,1.7c0.9,0.1,1.7-0.5,2-1.3l17-43.5
		C595.8,573.4,591.8,598.3,573.9,611.4z"/>
</g>
<path class="st4" d="M434.7,598.9c-19.1-15.5-42.7-29.6-67.7-43.2l-33.3,16.2L274,552.7c-8.2,30.8,4,81.2,25.5,140.5l-12,132l21,1
	l24.6-126.7l13.4,7.7l86.4-63.6c6.4-4.4,10.7-11.2,11.8-18.9C446.2,614.9,442.4,605.1,434.7,598.9z M333.4,698.1l17.3-89.2
	c10.3,13.3,21.9,21.8,36.3,21.8L333.4,698.1z"/>
<rect x="23.8" y="52.7" class="st0" width="247.7" height="256.3"/>
<path class="st2" d="M498.2,610.9L498.2,610.9c5.2-2.1,7.8-8,5.7-13.2c-0.8-2.1-2.3-3.8-4.3-5l-21.1-12.5l-15,8l24.3,21
	C490.7,611.7,494.7,612.4,498.2,610.9z"/>
<path class="st0" d="M499.5,560.2l-57.4-62.8l-9.5-22.1l-5-27.2c0.6-7.3-0.2-14.4-2.6-21.4c-8.9-5.8-8.5-5.8-15-25
	c-50.9,9.4-100.1,66.8-139.5,153.5c25.9,21.1,54.2,35,89,29c10.5-16.8,18.3-52.3,31.5-67.5c4.4-5.1,8.5-10.1,12.2-15l5.3,20.5l53,73
	l19-14l-7.1-12.5l10.7,9.4L499.5,560.2z"/>
<rect x="37" y="66.3" class="st1" width="221.2" height="228.9"/>
<polygon class="st0" points="80,299.2 87.9,299.2 87.8,296.1 87.7,289 86.5,216.7 86.4,216.3 85.8,179.4 84.2,89.5 83.9,89.5 
	82.2,180 81.5,216.4 81.5,216.7 "/>
<rect x="83.2" y="285.6" transform="matrix(0.8849 -0.4659 0.4659 0.8849 -123.5502 77.5295)" class="st0" width="23.8" height="6.3"/>
<rect x="142.8" y="59.5" class="st0" width="10" height="242"/>
<polygon class="st4" points="543.5,592.2 562.5,594.2 593.5,516.2 573.5,519.2 "/>
<path class="st4" d="M448.7,679.2c-0.2,0-0.4,0.1-0.5,0.2l-17.7,11.4c-0.5,0.3-0.6,0.9-0.3,1.4l4.3,6.7c0.3,0.5,0.9,0.6,1.4,0.3
	l17.7-11.4v0c0.5-0.3,0.6-0.9,0.3-1.4l-4.3-6.7c-0.1-0.2-0.4-0.4-0.6-0.4C448.8,679.2,448.7,679.2,448.7,679.2z"/>
<rect x="23.8" y="175.5" class="st0" width="247.7" height="10"/>
<rect x="1.8" y="0" class="st5" width="770.3" height="929.7"/>
</svg>
